<svg width="16" height="11" viewBox="0 0 16 11" fill="none" xmlns="http://www.w3.org/2000/svg">
<path fill-rule="evenodd" clip-rule="evenodd" d="M15.7656 5.54566C15.4457 4.44073 13.8257 1.15532 13.5242 0.562534C13.0072 -0.454811 11.7209 0.0171021 12.2259 1.10672C12.2521 1.16326 12.3041 1.27691 12.3713 1.42398L12.3715 1.42422C12.6174 1.96204 13.0675 2.94644 13.2089 3.22009C12.8972 3.13749 12.5747 3.09602 12.2434 3.09602C10.906 3.09602 10.0609 3.67794 9.59616 4.1479H6.40385C5.93905 3.67794 5.09385 3.09602 3.75643 3.09602C3.42551 3.09602 3.10277 3.13749 2.79107 3.22009C2.93254 2.94638 3.38279 1.96168 3.62868 1.42392C3.69592 1.27688 3.74787 1.16325 3.77406 1.10672C4.2789 0.0171021 2.99294 -0.454811 2.47563 0.562534C2.17425 1.15532 0.554333 4.44091 0.234265 5.54566C0.0788598 5.96399 0 6.4035 0 6.85209C0 8.92346 1.68507 10.6089 3.75626 10.6089C5.19104 10.6089 6.48003 9.80996 7.11999 8.52471C7.23374 8.29667 7.324 8.05707 7.38844 7.81212C7.47103 7.49917 7.51287 7.17661 7.51287 6.85209C7.51287 6.61658 7.44682 6.14948 7.44682 6.14948H8.55318C8.55318 6.14948 8.48713 6.61658 8.48713 6.85209C8.48713 7.17643 8.52879 7.49917 8.61156 7.81212C8.67583 8.05707 8.76626 8.29667 8.88001 8.52471C9.51979 9.80996 10.8086 10.6089 12.2436 10.6089C14.3149 10.6089 16 8.92346 16 6.85209C15.9998 6.4035 15.9211 5.96399 15.7656 5.54566ZM5.8577 7.62859C5.53229 8.50584 4.6878 9.09524 3.75643 9.09524C2.5196 9.09524 1.51347 8.08893 1.51347 6.85192C1.51347 6.63741 1.54409 6.42451 1.60497 6.21855C1.62882 6.16034 1.65232 6.08753 1.65979 6.06367C1.98841 5.19337 2.83023 4.60895 3.75643 4.60895C4.6878 4.60895 5.53229 5.19835 5.8577 6.07578C5.95187 6.32927 5.99958 6.59059 5.99958 6.85192C5.99975 7.1136 5.95205 7.3751 5.8577 7.62859ZM10.1423 7.62859C10.4679 8.50566 11.3124 9.09524 12.2436 9.09524C13.4804 9.09524 14.4865 8.08893 14.4867 6.85209C14.4867 6.63759 14.4557 6.42469 14.3952 6.21872C14.3712 6.16034 14.3477 6.08753 14.3402 6.06385C14.0118 5.19355 13.1698 4.60913 12.2436 4.60913C11.3122 4.60913 10.4679 5.19853 10.1423 6.07596C10.0481 6.32945 10.0004 6.59077 10.0004 6.85209C10.0004 7.1136 10.0481 7.3751 10.1423 7.62859Z" fill="white"/>
</svg>
