<svg width="110" height="88" viewBox="0 0 110 88" fill="none" xmlns="http://www.w3.org/2000/svg">
<path d="M0 87.8492C0 87.8492 15.8607 67.5982 54.9965 67.5982C94.1322 67.5982 110 87.8492 110 87.8492M54.9965 42.6936C60.658 42.6936 66.0876 40.4446 70.0909 36.4413C74.0942 32.438 76.3432 27.0083 76.3432 21.3468C76.3432 15.6853 74.0942 10.2556 70.0909 6.25233C66.0876 2.24903 60.658 0 54.9965 0C49.3349 0 43.9053 2.24903 39.902 6.25233C35.8987 10.2556 33.6497 15.6853 33.6497 21.3468C33.6497 27.0083 35.8987 32.438 39.902 36.4413C43.9053 40.4446 49.3349 42.6936 54.9965 42.6936Z" fill="white"/>
</svg>
