<svg width="18" height="22" viewBox="0 0 18 22" fill="none" xmlns="http://www.w3.org/2000/svg">
<path d="M9 21.0721C10.2375 21.0721 11.25 20.0995 11.25 18.9109H6.75C6.75 20.0995 7.7625 21.0721 9 21.0721ZM15.75 14.5884V9.18528C15.75 5.86777 13.9163 3.09057 10.6875 2.35575V1.62093C10.6875 0.724016 9.93375 0 9 0C8.06625 0 7.3125 0.724016 7.3125 1.62093V2.35575C4.095 3.09057 2.25 5.85696 2.25 9.18528V14.5884L0 16.7496V17.8302H18V16.7496L15.75 14.5884ZM13.5 15.669H4.5V9.18528C4.5 6.50534 6.19875 4.32248 9 4.32248C11.8013 4.32248 13.5 6.50534 13.5 9.18528V15.669Z" fill="white"/>
</svg>
