<svg width="24" height="24" viewBox="0 0 24 24" fill="none" xmlns="http://www.w3.org/2000/svg">
<path d="M10.4998 8.93068C10.6198 8.93068 10.7397 8.88493 10.8312 8.79336L11.0812 8.54336C11.2643 8.3603 11.2643 8.06352 11.0812 7.88046C10.8982 7.6974 10.6014 7.6974 10.4183 7.88046L10.1683 8.13046C9.87217 8.42665 10.086 8.93068 10.4998 8.93068Z" fill="#917AFD"/>
<path d="M12.4998 9.18068C12.6198 9.18068 12.7397 9.13493 12.8312 9.04336L13.0812 8.79336C13.2643 8.6103 13.2643 8.31352 13.0812 8.13046C12.8982 7.9474 12.6014 7.9474 12.4183 8.13046L12.1683 8.38046C11.8722 8.67665 12.086 9.18068 12.4998 9.18068Z" fill="#917AFD"/>
<path d="M10.4998 10.9307C10.6198 10.9307 10.7397 10.8849 10.8312 10.7934L11.0812 10.5434C11.2643 10.3603 11.2643 10.0635 11.0812 9.88046C10.8982 9.6974 10.6014 9.6974 10.4183 9.88046L10.1683 10.1305C9.87217 10.4266 10.086 10.9307 10.4998 10.9307Z" fill="#917AFD"/>
<path d="M4.46875 12.9306H19.5312C19.7901 12.9306 20 12.7207 20 12.4618C20 12.2029 19.7901 11.9931 19.5312 11.9931H18.9688V6.132C18.9688 4.9545 18.0161 4 16.837 4C16.3446 4 15.8642 4.17216 15.4844 4.48372L15.19 4.72525C14.5313 4.33753 13.6675 4.42609 13.1025 4.99112L12.3954 5.69822C12.2123 5.88128 12.2123 6.17806 12.3954 6.36112L14.1632 8.12891C14.3462 8.31197 14.643 8.312 14.8261 8.12891C15.5767 7.37828 15.5301 7.42181 15.5332 7.42181C16.078 6.877 16.1799 6.05437 15.8388 5.40566L16.0791 5.20853C16.2907 5.03491 16.5581 4.93866 16.8318 4.93753C17.4723 4.93178 18.0312 5.4525 18.0312 6.132V11.9931C17.551 11.9931 4.94447 11.9931 4.46875 11.9931C4.20987 11.9931 4 12.203 4 12.4618C4 12.7207 4.20987 12.9306 4.46875 12.9306Z" fill="#917AFD"/>
<path d="M5.2793 13.8682L5.47902 14.9666C5.77623 16.6013 6.98927 17.8709 8.5313 18.2859V18.9619C8.5313 19.2208 8.74117 19.4307 9.00005 19.4307C9.25892 19.4307 9.4688 19.2208 9.4688 18.9619V18.4274C9.61511 18.433 14.4018 18.4323 14.5313 18.4274V18.9619C14.5313 19.2208 14.7412 19.4307 15 19.4307C15.2589 19.4307 15.4688 19.2208 15.4688 18.9619V18.2859C17.0108 17.8709 18.2239 16.6013 18.5211 14.9666L18.7208 13.8682H5.2793V13.8682Z" fill="#917AFD"/>
</svg>
