<svg width="16" height="16" viewBox="0 0 16 16" fill="none" xmlns="http://www.w3.org/2000/svg">
<path fill-rule="evenodd" clip-rule="evenodd" d="M8 0C3.584 0 0 3.584 0 8C0 12.416 3.584 16 8 16C12.416 16 16 12.416 16 8C16 3.584 12.416 0 8 0ZM4.6 8.8C4.6 8.248 5.048 7.8 5.6 7.8C6.152 7.8 6.6 8.248 6.6 8.8C6.6 9.352 6.152 9.8 5.6 9.8C5.048 9.8 4.6 9.352 4.6 8.8ZM9.4 8.8C9.4 8.248 9.848 7.8 10.4 7.8C10.952 7.8 11.4 8.248 11.4 8.8C11.4 9.352 10.952 9.8 10.4 9.8C9.848 9.8 9.4 9.352 9.4 8.8ZM1.6 8C1.6 11.528 4.472 14.4 8 14.4C11.528 14.4 14.4 11.528 14.4 8C14.4 7.368 14.304 6.76 14.136 6.192C13.56 6.328 12.96 6.4 12.336 6.4C9.64 6.4 7.256 5.064 5.808 3.016C5.024 4.928 3.528 6.472 1.64 7.312C1.616 7.536 1.6 7.768 1.6 8Z" fill="white"/>
</svg>
