<?xml version="1.0" standalone="no"?>
<!DOCTYPE svg PUBLIC "-//W3C//DTD SVG 20010904//EN"
 "http://www.w3.org/TR/2001/REC-SVG-20010904/DTD/svg10.dtd">
<svg version="1.0" xmlns="http://www.w3.org/2000/svg"
 width="143.000000pt" height="157.000000pt" viewBox="0 0 143.000000 157.000000"
 preserveAspectRatio="xMidYMid meet">

<g transform="translate(0.000000,157.000000) scale(0.100000,-0.100000)"
fill="#000000" stroke="none">
<path d="M425 1322 c-244 -140 -311 -183 -313 -200 -2 -15 2 -22 13 -22 8 0
148 77 311 171 162 94 301 168 308 166 7 -3 135 -80 285 -171 149 -91 278
-166 285 -166 22 0 26 27 8 42 -16 14 -578 358 -584 358 -2 0 -142 -80 -313
-178z"/>
<path d="M570 1211 c-85 -48 -191 -108 -235 -133 l-80 -46 0 -323 0 -324 78
-3 c70 -3 78 -5 71 -20 -9 -21 -32 -184 -33 -233 -1 -25 4 -39 15 -43 9 -3
165 -6 349 -6 279 0 334 2 345 15 9 11 9 39 0 127 -7 62 -16 121 -21 130 -14
27 -12 28 61 28 64 0 71 2 79 23 11 27 14 608 3 623 -8 13 -456 274 -469 274
-4 0 -78 -40 -163 -89z m380 -90 l205 -119 3 -286 2 -286 -85 0 c-80 0 -126 9
-225 44 -31 11 -35 16 -33 45 1 19 13 48 30 69 46 58 57 94 50 170 -4 49 -2
74 8 92 22 38 18 85 -9 116 -21 25 -26 27 -52 16 -16 -6 -65 -10 -109 -9 -68
1 -86 -2 -116 -21 -59 -36 -69 -69 -60 -194 7 -95 11 -111 37 -149 66 -95 69
-117 14 -135 -102 -36 -145 -44 -225 -44 l-85 0 2 287 3 286 205 118 c113 64
212 118 220 118 8 1 107 -52 220 -118z m-80 -214 c0 -10 -9 -36 -20 -58 -16
-30 -18 -44 -10 -58 16 -32 12 -103 -10 -138 -52 -86 -150 -89 -201 -6 -18 29
-27 93 -18 128 1 6 -1 27 -6 48 -6 33 -4 42 16 64 34 36 51 40 156 39 82 -1
93 -3 93 -19z m-110 -402 c0 -19 8 -39 20 -50 19 -18 19 -18 -12 -57 l-31 -39
-38 37 -39 38 20 21 c11 12 20 35 20 51 0 27 3 31 30 31 27 0 30 -3 30 -32z
m-115 -125 c41 -42 42 -44 9 -54 -17 -5 -26 2 -48 34 -24 37 -27 60 -7 60 4 0
24 -18 46 -40z m229 34 c13 -5 11 -13 -15 -51 -21 -29 -36 -42 -46 -39 -8 3
-19 6 -24 6 -6 0 6 20 27 45 20 25 38 45 39 45 2 0 10 -3 19 -6z m-308 -85
l39 -60 45 7 c57 9 104 9 160 0 l45 -8 40 58 c22 32 46 59 52 62 7 2 26 -9 42
-25 23 -24 30 -41 35 -94 4 -35 9 -81 12 -101 l6 -38 -312 0 -312 0 5 43 c4
23 9 69 13 102 5 46 13 66 35 87 15 15 34 28 42 28 8 0 32 -27 53 -61z"/>
</g>
</svg>
