<svg width="75" height="30" viewBox="0 0 75 30" fill="none" xmlns="http://www.w3.org/2000/svg">
<g clip-path="url(#clip0_365_3979)">
<path fill-rule="evenodd" clip-rule="evenodd" d="M71.9966 11.8623L4.85466 11.8623C3.19595 11.8623 1.85131 13.207 1.85131 14.8657C1.85131 16.5244 3.19595 17.869 4.85466 17.869H71.9966C73.6553 17.869 75 16.5244 75 14.8657C75 13.207 73.6553 11.8623 71.9966 11.8623Z" fill="#917AFD"/>
<path fill-rule="evenodd" clip-rule="evenodd" d="M8.49475 14.8657L16.9895 6.37094C18.1624 5.19806 18.1624 3.29645 16.9895 2.12357C15.8166 0.950686 13.915 0.950686 12.7421 2.12357L2.12369 12.742C0.950807 13.9149 0.950807 15.8165 2.12369 16.9894L12.7421 27.6078C13.915 28.7807 15.8166 28.7807 16.9895 27.6078C18.1624 26.4349 18.1624 24.5333 16.9895 23.3604L8.49475 14.8657Z" fill="#917AFD"/>
</g>
<defs>
<clipPath id="clip0_365_3979">
<rect width="74.9164" height="29.6985" fill="white" transform="scale(1.00112)"/>
</clipPath>
</defs>
</svg>
