<?xml version="1.0" standalone="no"?>
<!DOCTYPE svg PUBLIC "-//W3C//DTD SVG 20010904//EN"
 "http://www.w3.org/TR/2001/REC-SVG-20010904/DTD/svg10.dtd">
<svg version="1.0" xmlns="http://www.w3.org/2000/svg"
 width="512.000000pt" height="512.000000pt" viewBox="0 0 512.000000 512.000000"
 preserveAspectRatio="xMidYMid meet">

<g transform="translate(0.000000,512.000000) scale(0.100000,-0.100000)"
fill="#000000" stroke="none">
<path d="M2461 4479 c-412 -49 -741 -338 -853 -747 -32 -116 -32 -353 1 -477
26 -100 78 -221 136 -311 48 -75 172 -203 253 -261 34 -25 62 -46 62 -48 0 -3
-19 -9 -42 -16 -141 -37 -377 -143 -518 -234 -553 -353 -907 -971 -922 -1612
-3 -111 -3 -113 25 -140 l27 -28 1931 -3 c2096 -2 1970 -5 2000 50 17 31 5
266 -20 403 -76 415 -273 780 -577 1075 -60 58 -136 126 -169 151 -175 134
-395 251 -598 317 l-118 39 54 35 c80 54 173 144 236 228 393 528 173 1282
-443 1521 -135 52 -322 75 -465 58z m309 -220 c384 -98 644 -479 590 -866 -37
-271 -193 -489 -435 -608 -134 -67 -195 -80 -360 -79 -128 0 -148 3 -233 31
-567 188 -738 895 -318 1315 131 132 286 205 491 232 54 7 188 -6 265 -25z
m-35 -1769 c685 -65 1261 -497 1513 -1135 60 -151 122 -425 122 -537 0 -17
-82 -18 -1796 -18 l-1797 0 7 80 c50 606 458 1182 1025 1448 289 135 611 191
926 162z"/>
</g>
</svg>
