<svg width="158" height="14" viewBox="0 0 158 14" fill="none" xmlns="http://www.w3.org/2000/svg">
<path d="M4.64262 1.42921L1.34718 10.5014H0L3.7945 0.54707H4.66262L4.64262 1.42921ZM7.40398 10.5014L4.10254 1.42921L4.08154 0.54707H4.94966L8.75816 10.5014H7.40398ZM7.23296 6.81591V7.89705H1.64122V6.81591H7.23296ZM11.2735 0V10.5014H10.0023V0H11.2735ZM14.5689 4.26656V10.5014H13.3048V3.10442H14.5349L14.5689 4.26656ZM16.8802 3.06242L16.8732 4.23854C16.7682 4.21554 16.6682 4.20258 16.5722 4.19758C16.4812 4.18858 16.3762 4.18458 16.2582 4.18458C15.9661 4.18458 15.7091 4.22957 15.4851 4.32058C15.262 4.41159 15.073 4.53961 14.918 4.70363C14.763 4.86765 14.6399 5.06369 14.5489 5.29172C14.4619 5.51475 14.4049 5.76076 14.3779 6.02979L14.0229 6.23484C14.0229 5.78878 14.0659 5.3687 14.1519 4.97765C14.2439 4.5856 14.3829 4.23855 14.5689 3.93851C14.756 3.63247 14.993 3.39544 15.28 3.22742C15.5721 3.0534 15.9181 2.96737 16.3192 2.96737C16.4112 2.96737 16.5152 2.97837 16.6342 3.00138C16.7522 3.01938 16.8342 3.04042 16.8802 3.06242ZM20.9818 10.6384C20.4677 10.6384 19.9997 10.5514 19.5806 10.3784C19.1655 10.2004 18.8085 9.95234 18.5075 9.6333C18.2114 9.31426 17.9834 8.9362 17.8234 8.49814C17.6643 8.06108 17.5843 7.58202 17.5843 7.06295V6.77489C17.5843 6.17381 17.6733 5.63778 17.8514 5.16872C18.0284 4.69465 18.2704 4.2936 18.5755 3.96555C18.8815 3.63751 19.2276 3.38842 19.6146 3.2204C20.0027 3.05138 20.4037 2.96737 20.8178 2.96737C21.3468 2.96737 21.8029 3.0584 22.186 3.24042C22.573 3.42345 22.89 3.67847 23.1361 4.00651C23.3821 4.32956 23.5641 4.71262 23.6831 5.15468C23.8012 5.59274 23.8602 6.07083 23.8602 6.5909V7.15793H18.3364V6.12581H22.596V6.02979C22.578 5.70175 22.509 5.38274 22.391 5.0727C22.277 4.76265 22.0939 4.50761 21.8439 4.30758C21.5929 4.10655 21.2508 4.00651 20.8178 4.00651C20.5307 4.00651 20.2667 4.06754 20.0247 4.19056C19.7836 4.30958 19.5766 4.4876 19.4026 4.72463C19.2296 4.96166 19.0955 5.25068 18.9995 5.59272C18.9035 5.93477 18.8565 6.32883 18.8565 6.77489V7.06295C18.8565 7.413 18.9035 7.74401 18.9995 8.05405C19.0995 8.35909 19.2436 8.62816 19.4306 8.86019C19.6216 9.09322 19.8516 9.27524 20.1207 9.40726C20.3947 9.53927 20.7047 9.60528 21.0508 9.60528C21.4969 9.60528 21.8759 9.51426 22.186 9.33223C22.496 9.15021 22.767 8.90616 22.9991 8.60112L23.7652 9.20923C23.6051 9.45126 23.4021 9.6813 23.1561 9.89933C22.91 10.1184 22.607 10.2964 22.247 10.4334C21.8919 10.5694 21.4699 10.6384 20.9818 10.6384ZM29.6989 9.23621V5.4287C29.6989 5.13666 29.6399 4.88366 29.5219 4.66963C29.4079 4.4506 29.2339 4.28259 29.0018 4.16358C28.7698 4.04556 28.4828 3.98551 28.1407 3.98551C27.8217 3.98551 27.5407 4.04052 27.2996 4.14954C27.0626 4.25955 26.8756 4.4026 26.7385 4.58063C26.6065 4.75865 26.5405 4.94965 26.5405 5.15468H25.2754C25.2754 4.89064 25.3444 4.6286 25.4814 4.36856C25.6174 4.10853 25.8134 3.87452 26.0685 3.66449C26.3285 3.45046 26.6385 3.28146 26.9986 3.15844C27.3636 3.03142 27.7687 2.96737 28.2157 2.96737C28.7538 2.96737 29.2279 3.0584 29.6379 3.24042C30.053 3.42345 30.376 3.69851 30.6091 4.06756C30.8451 4.43261 30.9641 4.89063 30.9641 5.4417V8.88821C30.9641 9.13424 30.9841 9.39622 31.0251 9.67426C31.0711 9.9523 31.1371 10.1913 31.2241 10.3924V10.5014H29.904C29.841 10.3554 29.79 10.1614 29.7539 9.92032C29.7179 9.67429 29.6989 9.44624 29.6989 9.23621ZM29.918 6.01679L29.932 6.90491H28.6528C28.2928 6.90491 27.9717 6.9349 27.6897 6.99391C27.4066 7.04892 27.1696 7.13292 26.9786 7.24693C26.7866 7.36095 26.6405 7.505 26.5405 7.67802C26.4405 7.84604 26.3905 8.04506 26.3905 8.2721C26.3905 8.50513 26.4425 8.71714 26.5475 8.90817C26.6525 9.10019 26.8096 9.25222 27.0196 9.36623C27.2336 9.47625 27.4956 9.53026 27.8057 9.53026C28.1927 9.53026 28.5348 9.44828 28.8308 9.28425C29.1269 9.12023 29.3619 8.92019 29.5349 8.68316C29.7129 8.44613 29.809 8.21612 29.822 7.99209L30.362 8.60112C30.331 8.79214 30.244 9.00418 30.103 9.23621C29.961 9.46924 29.772 9.69232 29.5349 9.90635C29.3029 10.1164 29.0249 10.2914 28.7008 10.4334C28.3818 10.5694 28.0217 10.6384 27.6207 10.6384C27.1196 10.6384 26.6795 10.5404 26.3015 10.3444C25.9274 10.1484 25.6354 9.88632 25.4264 9.55828C25.2213 9.22523 25.1183 8.85419 25.1183 8.44314C25.1183 8.04709 25.1963 7.69802 25.3514 7.39698C25.5064 7.09194 25.7294 6.83891 26.0215 6.63888C26.3125 6.43386 26.6635 6.27881 27.0736 6.17379C27.4837 6.06878 27.9417 6.01679 28.4478 6.01679H29.918ZM37.616 9.06523V0H38.8882V10.5014H37.726L37.616 9.06523ZM32.6393 6.88489V6.74089C32.6393 6.17581 32.7073 5.66278 32.8444 5.20272C32.9854 4.73766 33.1834 4.33956 33.4394 4.00651C33.6985 3.67347 34.0065 3.41844 34.3616 3.24042C34.7216 3.0584 35.1227 2.96737 35.5657 2.96737C36.0298 2.96737 36.4358 3.04942 36.7819 3.21344C37.1329 3.37246 37.429 3.60747 37.671 3.91751C37.917 4.22255 38.1111 4.5916 38.2521 5.02465C38.3931 5.45771 38.4911 5.94781 38.5461 6.49488V7.12393C38.4961 7.666 38.3981 8.15408 38.2521 8.58714C38.1111 9.0202 37.917 9.38924 37.671 9.69428C37.429 10.0003 37.1329 10.2343 36.7819 10.3984C36.4308 10.5584 36.0208 10.6384 35.5517 10.6384C35.1187 10.6384 34.7216 10.5444 34.3616 10.3574C34.0065 10.1714 33.6985 9.90932 33.4394 9.57128C33.1834 9.23423 32.9854 8.83816 32.8444 8.3821C32.7073 7.92203 32.6393 7.42296 32.6393 6.88489ZM33.9105 6.74089V6.88489C33.9105 7.25394 33.9475 7.59998 34.0205 7.92403C34.0975 8.24707 34.2165 8.53211 34.3756 8.77814C34.5356 9.02418 34.7376 9.2182 34.9836 9.35921C35.2307 9.49623 35.5247 9.56426 35.8658 9.56426C36.2858 9.56426 36.6299 9.47626 36.8989 9.29823C37.1719 9.12021 37.391 8.8852 37.555 8.59416C37.719 8.30212 37.846 7.98507 37.938 7.64402V5.99579C37.883 5.74476 37.803 5.50373 37.698 5.2717C37.598 5.03467 37.466 4.82467 37.302 4.64265C37.1419 4.45562 36.9439 4.30759 36.7069 4.19758C36.4749 4.08856 36.1988 4.03356 35.8798 4.03356C35.5337 4.03356 35.2347 4.10656 34.9836 4.25258C34.7376 4.3936 34.5356 4.58964 34.3756 4.84067C34.2165 5.0867 34.0975 5.3737 34.0205 5.70175C33.9475 6.02579 33.9105 6.37184 33.9105 6.74089ZM42.9357 9.7353L44.993 3.10442H46.3472L43.3798 11.6436C43.3118 11.8256 43.2207 12.0216 43.1067 12.2306C42.9967 12.4457 42.8557 12.6477 42.6827 12.8397C42.5096 13.0307 42.2996 13.1857 42.0536 13.3047C41.8116 13.4278 41.5225 13.4888 41.1855 13.4888C41.0845 13.4888 40.9574 13.4758 40.8024 13.4478C40.6474 13.4208 40.5384 13.3978 40.4744 13.3798L40.4674 12.3547C40.5034 12.3587 40.5604 12.3637 40.6384 12.3677C40.7204 12.3767 40.7774 12.3817 40.8094 12.3817C41.0965 12.3817 41.3405 12.3426 41.5405 12.2656C41.7415 12.1926 41.9096 12.0666 42.0466 11.8896C42.1876 11.7166 42.3086 11.4765 42.4086 11.1715L42.9357 9.7353ZM41.4245 3.10442L43.3458 8.84718L43.6738 10.1804L42.7647 10.6454L40.0433 3.10442H41.4245ZM52.2269 0V10.5014H50.9618V0H52.2269ZM51.9259 6.52186L51.3998 6.50184C51.4038 5.99577 51.4788 5.52871 51.6249 5.10065C51.7709 4.6676 51.9759 4.29156 52.2399 3.97251C52.505 3.65347 52.819 3.40742 53.1841 3.2334C53.5531 3.05638 53.9612 2.96737 54.4072 2.96737C54.7723 2.96737 55.1003 3.01741 55.3924 3.11742C55.6834 3.21343 55.9324 3.36842 56.1375 3.58245C56.3475 3.79647 56.5065 4.07456 56.6155 4.4166C56.7255 4.75365 56.7795 5.1667 56.7795 5.65377V10.5014H55.5084V5.64076C55.5084 5.25271 55.4514 4.94268 55.3373 4.71065C55.2233 4.47362 55.0573 4.30259 54.8383 4.19758C54.6193 4.08856 54.3502 4.03356 54.0312 4.03356C53.7171 4.03356 53.4301 4.09956 53.1701 4.23158C52.915 4.3646 52.694 4.54662 52.507 4.77865C52.3249 5.01168 52.1809 5.2777 52.0759 5.57874C51.9759 5.87478 51.9259 6.18982 51.9259 6.52186ZM63.0354 9.23621V5.4287C63.0354 5.13666 62.9764 4.88366 62.8584 4.66963C62.7443 4.4506 62.5713 4.28259 62.3383 4.16358C62.1062 4.04556 61.8192 3.98551 61.4772 3.98551C61.1581 3.98551 60.8771 4.04052 60.6361 4.14954C60.399 4.25955 60.212 4.4026 60.075 4.58063C59.943 4.75865 59.877 4.94965 59.877 5.15468H58.6128C58.6128 4.89064 58.6808 4.6286 58.8178 4.36856C58.9538 4.10853 59.1499 3.87452 59.4049 3.66449C59.6649 3.45046 59.975 3.28146 60.335 3.15844C60.7001 3.03142 61.1051 2.96737 61.5522 2.96737C62.0902 2.96737 62.5643 3.0584 62.9744 3.24042C63.3894 3.42345 63.7125 3.69851 63.9455 4.06756C64.1825 4.43261 64.3005 4.89063 64.3005 5.4417V8.88821C64.3005 9.13424 64.3215 9.39622 64.3625 9.67426C64.4076 9.9523 64.4736 10.1913 64.5606 10.3924V10.5014H63.2404C63.1774 10.3554 63.1264 10.1614 63.0904 9.92032C63.0544 9.67429 63.0354 9.44624 63.0354 9.23621ZM63.2544 6.01679L63.2684 6.90491H61.9892C61.6292 6.90491 61.3081 6.9349 61.0261 6.99391C60.7431 7.04892 60.506 7.13292 60.315 7.24693C60.123 7.36095 59.977 7.505 59.877 7.67802C59.7769 7.84604 59.7269 8.04506 59.7269 8.2721C59.7269 8.50513 59.7789 8.71714 59.884 8.90817C59.989 9.10019 60.146 9.25222 60.356 9.36623C60.57 9.47625 60.8321 9.53026 61.1421 9.53026C61.5292 9.53026 61.8712 9.44828 62.1673 9.28425C62.4633 9.12023 62.6983 8.92019 62.8714 8.68316C63.0494 8.44613 63.1454 8.21612 63.1584 7.99209L63.6985 8.60112C63.6675 8.79214 63.5805 9.00418 63.4394 9.23621C63.2974 9.46924 63.1084 9.69232 62.8714 9.90635C62.6393 10.1164 62.3613 10.2914 62.0372 10.4334C61.7182 10.5694 61.3582 10.6384 60.9571 10.6384C60.456 10.6384 60.016 10.5404 59.6379 10.3444C59.2639 10.1484 58.9728 9.88632 58.7628 9.55828C58.5578 9.22523 58.4548 8.85419 58.4548 8.44314C58.4548 8.04709 58.5328 7.69802 58.6878 7.39698C58.8428 7.09194 59.0658 6.83891 59.3579 6.63888C59.6489 6.43386 60 6.27881 60.41 6.17379C60.8211 6.06878 61.2791 6.01679 61.7842 6.01679H63.2544ZM68.4301 9.35921L70.4534 3.10442H71.7455L69.0862 10.5014H68.2381L68.4301 9.35921ZM66.7409 3.10442L68.8261 9.39425L68.9702 10.5014H68.1221L65.4427 3.10442H66.7409ZM75.9371 10.6384C75.422 10.6384 74.955 10.5514 74.5349 10.3784C74.1208 10.2004 73.7628 9.95234 73.4618 9.6333C73.1657 9.31426 72.9377 8.9362 72.7787 8.49814C72.6187 8.06108 72.5386 7.58202 72.5386 7.06295V6.77489C72.5386 6.17381 72.6276 5.63778 72.8057 5.16872C72.9837 4.69465 73.2247 4.2936 73.5308 3.96555C73.8358 3.63751 74.1819 3.38842 74.5699 3.2204C74.957 3.05138 75.358 2.96737 75.7731 2.96737C76.3011 2.96737 76.7572 3.0584 77.1402 3.24042C77.5273 3.42345 77.8443 3.67847 78.0904 4.00651C78.3364 4.32956 78.5184 4.71262 78.6375 5.15468C78.7555 5.59274 78.8155 6.07083 78.8155 6.5909V7.15793H73.2907V6.12581H77.5503V6.02979C77.5323 5.70175 77.4633 5.38274 77.3453 5.0727C77.2313 4.76265 77.0492 4.50761 76.7982 4.30758C76.5472 4.10655 76.2061 4.00651 75.7731 4.00651C75.486 4.00651 75.221 4.06754 74.98 4.19056C74.7379 4.30958 74.5309 4.4876 74.3579 4.72463C74.1839 4.96166 74.0498 5.25068 73.9538 5.59272C73.8588 5.93477 73.8108 6.32883 73.8108 6.77489V7.06295C73.8108 7.413 73.8588 7.74401 73.9538 8.05405C74.0548 8.35909 74.1979 8.62816 74.3849 8.86019C74.5759 9.09322 74.8069 9.27524 75.075 9.40726C75.349 9.53927 75.6591 9.60528 76.0051 9.60528C76.4522 9.60528 76.8302 9.51426 77.1402 9.33223C77.4503 9.15021 77.7213 8.90616 77.9534 8.60112L78.7195 9.20923C78.5594 9.45126 78.3574 9.6813 78.1114 9.89933C77.8654 10.1184 77.5613 10.2964 77.2013 10.4334C76.8462 10.5694 76.4241 10.6384 75.9371 10.6384ZM88.1267 9.23621V5.4287C88.1267 5.13666 88.0677 4.88366 87.9497 4.66963C87.8357 4.4506 87.6617 4.28259 87.4296 4.16358C87.1976 4.04556 86.9096 3.98551 86.5685 3.98551C86.2495 3.98551 85.9684 4.04052 85.7274 4.14954C85.4904 4.25955 85.3033 4.4026 85.1663 4.58063C85.0343 4.75865 84.9683 4.94965 84.9683 5.15468H83.7031C83.7031 4.89064 83.7721 4.6286 83.9081 4.36856C84.0452 4.10853 84.2412 3.87452 84.4962 3.66449C84.7563 3.45046 85.0663 3.28146 85.4264 3.15844C85.7914 3.03142 86.1965 2.96737 86.6435 2.96737C87.1816 2.96737 87.6556 3.0584 88.0657 3.24042C88.4798 3.42345 88.8038 3.69851 89.0358 4.06756C89.2729 4.43261 89.3919 4.89063 89.3919 5.4417V8.88821C89.3919 9.13424 89.4119 9.39622 89.4529 9.67426C89.4989 9.9523 89.5649 10.1913 89.6519 10.3924V10.5014H88.3317C88.2687 10.3554 88.2177 10.1614 88.1817 9.92032C88.1447 9.67429 88.1267 9.44624 88.1267 9.23621ZM88.3457 6.01679L88.3597 6.90491H87.0806C86.7205 6.90491 86.3995 6.9349 86.1164 6.99391C85.8344 7.04892 85.5974 7.13292 85.4063 7.24693C85.2143 7.36095 85.0683 7.505 84.9683 7.67802C84.8683 7.84604 84.8183 8.04506 84.8183 8.2721C84.8183 8.50513 84.8703 8.71714 84.9753 8.90817C85.0803 9.10019 85.2373 9.25222 85.4474 9.36623C85.6614 9.47625 85.9234 9.53026 86.2335 9.53026C86.6205 9.53026 86.9626 9.44828 87.2586 9.28425C87.5546 9.12023 87.7897 8.92019 87.9627 8.68316C88.1407 8.44613 88.2367 8.21612 88.2497 7.99209L88.7898 8.60112C88.7578 8.79214 88.6718 9.00418 88.5308 9.23621C88.3888 9.46924 88.1997 9.69232 87.9627 9.90635C87.7307 10.1164 87.4526 10.2914 87.1286 10.4334C86.8095 10.5694 86.4495 10.6384 86.0484 10.6384C85.5474 10.6384 85.1073 10.5404 84.7293 10.3444C84.3552 10.1484 84.0632 9.88632 83.8541 9.55828C83.6491 9.22523 83.5461 8.85419 83.5461 8.44314C83.5461 8.04709 83.6241 7.69802 83.7791 7.39698C83.9342 7.09194 84.1572 6.83891 84.4492 6.63888C84.7403 6.43386 85.0913 6.27881 85.5014 6.17379C85.9114 6.06878 86.3695 6.01679 86.8756 6.01679H88.3457ZM92.6463 4.68361V10.5014H91.3811V3.10442H92.5773L92.6463 4.68361ZM92.3453 6.52186L91.8192 6.50184C91.8232 5.99577 91.8982 5.52871 92.0442 5.10065C92.1903 4.6676 92.3953 4.29156 92.6593 3.97251C92.9243 3.65347 93.2384 3.40742 93.6034 3.2334C93.9725 3.05638 94.3805 2.96737 94.8266 2.96737C95.1917 2.96737 95.5197 3.01741 95.8117 3.11742C96.1038 3.21343 96.3518 3.36842 96.5568 3.58245C96.7669 3.79647 96.9259 4.07456 97.0349 4.4166C97.1449 4.75365 97.1999 5.1667 97.1999 5.65377V10.5014H95.9277V5.64076C95.9277 5.25271 95.8707 4.94268 95.7567 4.71065C95.6427 4.47362 95.4767 4.30259 95.2577 4.19758C95.0386 4.08856 94.7696 4.03356 94.4505 4.03356C94.1365 4.03356 93.8495 4.09956 93.5894 4.23158C93.3344 4.3646 93.1134 4.54662 92.9263 4.77865C92.7443 5.01168 92.6003 5.2777 92.4953 5.57874C92.3953 5.87478 92.3453 6.18982 92.3453 6.52186ZM106.955 9.23621V5.4287C106.955 5.13666 106.896 4.88366 106.778 4.66963C106.664 4.4506 106.491 4.28259 106.258 4.16358C106.026 4.04556 105.739 3.98551 105.397 3.98551C105.078 3.98551 104.798 4.04052 104.556 4.14954C104.319 4.25955 104.132 4.4026 103.995 4.58063C103.863 4.75865 103.797 4.94965 103.797 5.15468H102.533C102.533 4.89064 102.601 4.6286 102.738 4.36856C102.874 4.10853 103.07 3.87452 103.326 3.66449C103.585 3.45046 103.895 3.28146 104.255 3.15844C104.62 3.03142 105.025 2.96737 105.472 2.96737C106.01 2.96737 106.484 3.0584 106.894 3.24042C107.309 3.42345 107.632 3.69851 107.865 4.06756C108.102 4.43261 108.22 4.89063 108.22 5.4417V8.88821C108.22 9.13424 108.241 9.39622 108.282 9.67426C108.327 9.9523 108.393 10.1913 108.48 10.3924V10.5014H107.16C107.097 10.3554 107.047 10.1614 107.01 9.92032C106.974 9.67429 106.955 9.44624 106.955 9.23621ZM107.174 6.01679L107.188 6.90491H105.91C105.549 6.90491 105.228 6.9349 104.946 6.99391C104.663 7.04892 104.426 7.13292 104.235 7.24693C104.043 7.36095 103.897 7.505 103.797 7.67802C103.697 7.84604 103.647 8.04506 103.647 8.2721C103.647 8.50513 103.699 8.71714 103.804 8.90817C103.909 9.10019 104.066 9.25222 104.276 9.36623C104.49 9.47625 104.752 9.53026 105.062 9.53026C105.449 9.53026 105.791 9.44828 106.087 9.28425C106.383 9.12023 106.618 8.92019 106.791 8.68316C106.969 8.44613 107.065 8.21612 107.078 7.99209L107.619 8.60112C107.587 8.79214 107.5 9.00418 107.359 9.23621C107.217 9.46924 107.028 9.69232 106.791 9.90635C106.559 10.1164 106.281 10.2914 105.957 10.4334C105.638 10.5694 105.278 10.6384 104.877 10.6384C104.376 10.6384 103.936 10.5404 103.558 10.3444C103.184 10.1484 102.893 9.88632 102.683 9.55828C102.478 9.22523 102.375 8.85419 102.375 8.44314C102.375 8.04709 102.453 7.69802 102.608 7.39698C102.763 7.09194 102.986 6.83891 103.278 6.63888C103.569 6.43386 103.92 6.27881 104.33 6.17379C104.741 6.06878 105.199 6.01679 105.704 6.01679H107.174ZM113.17 9.5993C113.471 9.5993 113.749 9.53729 114.004 9.41428C114.259 9.29126 114.469 9.12219 114.633 8.90817C114.797 8.68914 114.891 8.44111 114.913 8.16307H116.117C116.094 8.60113 115.946 9.00818 115.672 9.38723C115.403 9.76028 115.05 10.0633 114.613 10.2964C114.175 10.5244 113.694 10.6384 113.17 10.6384C112.614 10.6384 112.129 10.5404 111.714 10.3444C111.304 10.1484 110.962 9.87932 110.689 9.53728C110.42 9.19523 110.217 8.80316 110.08 8.3611C109.948 7.91504 109.882 7.443 109.882 6.94593V6.6589C109.882 6.16184 109.948 5.69276 110.08 5.2507C110.217 4.80364 110.42 4.4096 110.689 4.06756C110.962 3.72651 111.304 3.45745 111.714 3.26142C112.129 3.06539 112.614 2.96737 113.17 2.96737C113.749 2.96737 114.255 3.08543 114.688 3.32246C115.121 3.55549 115.46 3.87451 115.706 4.27956C115.957 4.68061 116.094 5.13668 116.117 5.64675H114.913C114.891 5.34171 114.804 5.06564 114.654 4.81961C114.508 4.57358 114.307 4.3776 114.052 4.23158C113.801 4.08156 113.508 4.00651 113.17 4.00651C112.783 4.00651 112.457 4.08352 112.193 4.23854C111.933 4.38956 111.726 4.59461 111.571 4.85465C111.42 5.10968 111.311 5.39472 111.243 5.70877C111.179 6.01881 111.147 6.33586 111.147 6.6589V6.94593C111.147 7.26997 111.179 7.58899 111.243 7.90303C111.306 8.21807 111.413 8.50315 111.564 8.75818C111.719 9.01322 111.926 9.21823 112.186 9.37325C112.45 9.52327 112.778 9.5993 113.17 9.5993ZM120.499 9.5993C120.8 9.5993 121.078 9.53729 121.333 9.41428C121.589 9.29126 121.798 9.12219 121.962 8.90817C122.126 8.68914 122.22 8.44111 122.243 8.16307H123.446C123.423 8.60113 123.275 9.00818 123.001 9.38723C122.732 9.76028 122.379 10.0633 121.942 10.2964C121.504 10.5244 121.023 10.6384 120.499 10.6384C119.943 10.6384 119.458 10.5404 119.043 10.3444C118.633 10.1484 118.291 9.87932 118.018 9.53728C117.749 9.19523 117.546 8.80316 117.41 8.3611C117.277 7.91504 117.211 7.443 117.211 6.94593V6.6589C117.211 6.16184 117.277 5.69276 117.41 5.2507C117.546 4.80364 117.749 4.4096 118.018 4.06756C118.291 3.72651 118.633 3.45745 119.043 3.26142C119.458 3.06539 119.943 2.96737 120.499 2.96737C121.078 2.96737 121.584 3.08543 122.017 3.32246C122.45 3.55549 122.789 3.87451 123.036 4.27956C123.286 4.68061 123.423 5.13668 123.446 5.64675H122.243C122.22 5.34171 122.133 5.06564 121.983 4.81961C121.837 4.57358 121.636 4.3776 121.381 4.23158C121.131 4.08156 120.837 4.00651 120.499 4.00651C120.112 4.00651 119.786 4.08352 119.522 4.23854C119.262 4.38956 119.055 4.59461 118.9 4.85465C118.749 5.10968 118.64 5.39472 118.572 5.70877C118.508 6.01881 118.476 6.33586 118.476 6.6589V6.94593C118.476 7.26997 118.508 7.58899 118.572 7.90303C118.635 8.21807 118.743 8.50315 118.893 8.75818C119.048 9.01322 119.255 9.21823 119.515 9.37325C119.779 9.52327 120.107 9.5993 120.499 9.5993ZM124.534 6.88489V6.72788C124.534 6.19381 124.611 5.69974 124.766 5.24368C124.921 4.78362 125.144 4.38458 125.436 4.04753C125.728 3.70549 126.081 3.44149 126.496 3.25446C126.91 3.06244 127.375 2.96737 127.89 2.96737C128.41 2.96737 128.877 3.06244 129.291 3.25446C129.711 3.44149 130.066 3.70549 130.358 4.04753C130.654 4.38458 130.88 4.78362 131.035 5.24368C131.19 5.69974 131.267 6.19381 131.267 6.72788V6.88489C131.267 7.41796 131.19 7.91206 131.035 8.36812C130.88 8.82418 130.654 9.22321 130.358 9.56426C130.066 9.9023 129.713 10.1664 129.298 10.3574C128.888 10.5444 128.423 10.6384 127.904 10.6384C127.384 10.6384 126.917 10.5444 126.502 10.3574C126.088 10.1664 125.732 9.9023 125.436 9.56426C125.144 9.22321 124.921 8.82418 124.766 8.36812C124.611 7.91206 124.534 7.41796 124.534 6.88489ZM125.798 6.72788V6.88489C125.798 7.25394 125.842 7.603 125.928 7.93105C126.015 8.25409 126.145 8.54115 126.318 8.79218C126.496 9.04322 126.717 9.24121 126.981 9.38723C127.245 9.52825 127.553 9.5993 127.904 9.5993C128.25 9.5993 128.553 9.52825 128.813 9.38723C129.077 9.24121 129.296 9.04322 129.469 8.79218C129.642 8.54115 129.772 8.25409 129.859 7.93105C129.95 7.603 129.996 7.25394 129.996 6.88489V6.72788C129.996 6.36284 129.95 6.01877 129.859 5.69473C129.772 5.36668 129.64 5.07766 129.462 4.82663C129.289 4.5716 129.07 4.37056 128.806 4.22554C128.546 4.07952 128.241 4.00651 127.89 4.00651C127.544 4.00651 127.238 4.07952 126.974 4.22554C126.714 4.37056 126.496 4.5716 126.318 4.82663C126.145 5.07766 126.015 5.36668 125.928 5.69473C125.842 6.01877 125.798 6.36284 125.798 6.72788ZM137.379 8.79218V3.10442H138.651V10.5014H137.441L137.379 8.79218ZM137.619 7.23296L138.145 7.21995C138.145 7.71202 138.093 8.16808 137.988 8.58714C137.887 9.00219 137.723 9.36226 137.496 9.6673C137.268 9.97234 136.969 10.2123 136.6 10.3854C136.231 10.5534 135.782 10.6384 135.253 10.6384C134.893 10.6384 134.563 10.5854 134.262 10.4804C133.966 10.3764 133.711 10.2144 133.497 9.99535C133.282 9.77632 133.116 9.49228 132.997 9.14123C132.884 8.79018 132.827 8.36811 132.827 7.87605V3.10442H134.091V7.89003C134.091 8.22207 134.128 8.49813 134.201 8.71716C134.278 8.93119 134.381 9.10221 134.508 9.23023C134.64 9.35325 134.786 9.43923 134.946 9.48924C135.11 9.53924 135.278 9.56426 135.452 9.56426C135.989 9.56426 136.415 9.46224 136.73 9.25721C137.044 9.04718 137.27 8.76714 137.407 8.4161C137.548 8.06105 137.619 7.66601 137.619 7.23296ZM141.844 4.68361V10.5014H140.58V3.10442H141.776L141.844 4.68361ZM141.543 6.52186L141.017 6.50184C141.022 5.99577 141.097 5.52871 141.243 5.10065C141.388 4.6676 141.594 4.29156 141.858 3.97251C142.122 3.65347 142.437 3.40742 142.801 3.2334C143.17 3.05638 143.578 2.96737 144.025 2.96737C144.389 2.96737 144.718 3.01741 145.009 3.11742C145.301 3.21343 145.549 3.36842 145.754 3.58245C145.964 3.79647 146.124 4.07456 146.233 4.4166C146.342 4.75365 146.397 5.1667 146.397 5.65377V10.5014H145.125V5.64076C145.125 5.25271 145.068 4.94268 144.955 4.71065C144.841 4.47362 144.674 4.30259 144.456 4.19758C144.237 4.08856 143.968 4.03356 143.649 4.03356C143.334 4.03356 143.047 4.09956 142.788 4.23158C142.532 4.3646 142.311 4.54662 142.124 4.77865C141.942 5.01168 141.799 5.2777 141.694 5.57874C141.594 5.87478 141.543 6.18982 141.543 6.52186ZM151.416 3.10442V4.07452H147.416V3.10442H151.416ZM148.77 1.3062H150.035V8.66918C150.035 8.92022 150.073 9.1092 150.151 9.23621C150.228 9.36423 150.329 9.44823 150.452 9.48924C150.575 9.53024 150.707 9.55126 150.848 9.55126C150.953 9.55126 151.062 9.54224 151.176 9.52324C151.295 9.50123 151.384 9.48228 151.443 9.46928L151.45 10.5014C151.349 10.5334 151.217 10.5634 151.053 10.5904C150.894 10.6224 150.7 10.6384 150.472 10.6384C150.162 10.6384 149.877 10.5764 149.618 10.4534C149.358 10.3304 149.151 10.1253 148.996 9.83828C148.845 9.54624 148.77 9.15423 148.77 8.66216V1.3062ZM155.648 7.69804H154.375C154.381 7.26099 154.42 6.90294 154.493 6.6249C154.57 6.34187 154.695 6.0848 154.869 5.85277C155.042 5.61974 155.272 5.35573 155.559 5.05969C155.769 4.84466 155.96 4.64459 156.133 4.45756C156.311 4.26654 156.455 4.06152 156.564 3.84249C156.673 3.61846 156.728 3.35244 156.728 3.0424C156.728 2.72835 156.671 2.45633 156.557 2.2293C156.448 2.00127 156.284 1.82527 156.065 1.70225C155.851 1.57924 155.584 1.51821 155.265 1.51821C155.001 1.51821 154.75 1.56522 154.513 1.66123C154.276 1.75724 154.084 1.90523 153.938 2.10526C153.792 2.30129 153.717 2.55933 153.712 2.87837H152.448C152.457 2.3633 152.584 1.92126 152.831 1.55221C153.081 1.18316 153.418 0.900099 153.842 0.704073C154.266 0.508047 154.741 0.410028 155.265 0.410028C155.844 0.410028 156.336 0.515044 156.742 0.725072C157.152 0.9341 157.464 1.23518 157.678 1.62723C157.892 2.01428 158 2.47532 158 3.0084C158 3.41845 157.915 3.79651 157.747 4.14356C157.583 4.4846 157.371 4.80666 157.111 5.1067C156.851 5.40774 156.575 5.69477 156.284 5.96881C156.033 6.20084 155.864 6.46289 155.778 6.75493C155.691 7.04696 155.648 7.361 155.648 7.69804ZM154.322 9.86532C154.322 9.6603 154.386 9.48723 154.513 9.34621C154.641 9.20419 154.825 9.13421 155.067 9.13421C155.313 9.13421 155.5 9.20419 155.627 9.34621C155.755 9.48723 155.819 9.6603 155.819 9.86532C155.819 10.0614 155.755 10.2304 155.627 10.3714C155.5 10.5124 155.313 10.5834 155.067 10.5834C154.825 10.5834 154.641 10.5124 154.513 10.3714C154.386 10.2304 154.322 10.0614 154.322 9.86532Z" fill="white"/>
</svg>
