<svg width="16" height="16" viewBox="0 0 16 16" fill="none" xmlns="http://www.w3.org/2000/svg">
<path d="M7.99976 14L4.4642 10.4853C3.76495 9.79011 3.28875 8.90444 3.09583 7.94025C2.90291 6.97606 3.00193 5.97664 3.38037 5.0684C3.75881 4.16015 4.39967 3.38386 5.22191 2.83769C6.04416 2.29152 7.01085 2 7.99976 2C8.98866 2 9.95536 2.29152 10.7776 2.83769C11.5998 3.38386 12.2407 4.16015 12.6191 5.0684C12.9976 5.97664 13.0966 6.97606 12.9037 7.94025C12.7108 8.90444 12.2346 9.79011 11.5353 10.4853L7.99976 14ZM10.7498 9.70433C11.2936 9.16364 11.6639 8.47479 11.8139 7.72487C11.964 6.97495 11.8869 6.19765 11.5926 5.49126C11.2982 4.78486 10.7998 4.1811 10.1603 3.75632C9.52075 3.33153 8.76889 3.10481 7.99976 3.10481C7.23062 3.10481 6.47876 3.33153 5.83925 3.75632C5.19973 4.1811 4.70128 4.78486 4.40693 5.49126C4.11258 6.19765 4.03554 6.97495 4.18556 7.72487C4.33559 8.47479 4.70593 9.16364 5.24976 9.70433L7.99976 12.4381L10.7498 9.70433ZM7.99976 8.07509C7.70507 8.07509 7.42246 7.95871 7.21408 7.75157C7.00571 7.54442 6.88865 7.26347 6.88865 6.97052C6.88865 6.67757 7.00571 6.39662 7.21408 6.18947C7.42246 5.98232 7.70507 5.86595 7.99976 5.86595C8.29444 5.86595 8.57706 5.98232 8.78543 6.18947C8.9938 6.39662 9.11087 6.67757 9.11087 6.97052C9.11087 7.26347 8.9938 7.54442 8.78543 7.75157C8.57706 7.95871 8.29444 8.07509 7.99976 8.07509Z" fill="white"/>
</svg>
