<svg width="15" height="15" viewBox="0 0 15 15" fill="none" xmlns="http://www.w3.org/2000/svg">
<path d="M7.18268 1.74287H4.8458C2.92393 1.74287 1.71893 3.1035 1.71893 5.02975V10.226C1.71893 12.1522 2.9183 13.5129 4.8458 13.5129H10.3608C12.2889 13.5129 13.4883 12.1522 13.4883 10.226V7.7085M9.47823 2.87632L12.332 5.73007M5.51736 6.82531L10.188 2.15469C10.7699 1.57344 11.713 1.57344 12.2949 2.15469L13.0555 2.91531C13.6374 3.49719 13.6374 4.44094 13.0555 5.02219L8.36236 9.71531C8.10798 9.96969 7.76298 10.1128 7.40298 10.1128H5.06173L5.12048 7.75031C5.12923 7.40281 5.27111 7.07156 5.51736 6.82531Z" stroke="#FEFEFE" stroke-width="1.2" stroke-linecap="round" stroke-linejoin="round"/>
</svg>
