<svg width="41" height="41" viewBox="0 0 41 41" fill="none" xmlns="http://www.w3.org/2000/svg">
<g filter="url(#filter0_d_359_9705)">
<circle cx="20.5" cy="20.5" r="20.5" fill="#E8F3F1"/>
<path d="M12.0461 18.0366H28.9624" stroke="#917AFD" stroke-width="1.5" stroke-linecap="round" stroke-linejoin="round"/>
<path d="M24.7157 21.7437H24.7245" stroke="#917AFD" stroke-width="1.5" stroke-linecap="round" stroke-linejoin="round"/>
<path d="M20.5043 21.7437H20.5131" stroke="#917AFD" stroke-width="1.5" stroke-linecap="round" stroke-linejoin="round"/>
<path d="M16.284 21.7437H16.2928" stroke="#917AFD" stroke-width="1.5" stroke-linecap="round" stroke-linejoin="round"/>
<path d="M24.7157 25.4321H24.7245" stroke="#917AFD" stroke-width="1.5" stroke-linecap="round" stroke-linejoin="round"/>
<path d="M20.5043 25.4321H20.5131" stroke="#917AFD" stroke-width="1.5" stroke-linecap="round" stroke-linejoin="round"/>
<path d="M16.284 25.4321H16.2928" stroke="#917AFD" stroke-width="1.5" stroke-linecap="round" stroke-linejoin="round"/>
<path d="M24.3377 11.0098V14.133" stroke="#917AFD" stroke-width="1.5" stroke-linecap="round" stroke-linejoin="round"/>
<path d="M16.6709 11.0098V14.133" stroke="#917AFD" stroke-width="1.5" stroke-linecap="round" stroke-linejoin="round"/>
<path fill-rule="evenodd" clip-rule="evenodd" d="M24.5223 12.5088H16.4862C13.6991 12.5088 11.9583 14.0614 11.9583 16.9154V25.5041C11.9583 28.403 13.6991 29.9915 16.4862 29.9915H24.5136C27.3095 29.9915 29.0416 28.4299 29.0416 25.5759V16.9154C29.0503 14.0614 27.3183 12.5088 24.5223 12.5088Z" stroke="#917AFD" stroke-width="1.5" stroke-linecap="round" stroke-linejoin="round"/>
</g>
<defs>
<filter id="filter0_d_359_9705" x="-4" y="0" width="49" height="49" filterUnits="userSpaceOnUse" color-interpolation-filters="sRGB">
<feFlood flood-opacity="0" result="BackgroundImageFix"/>
<feColorMatrix in="SourceAlpha" type="matrix" values="0 0 0 0 0 0 0 0 0 0 0 0 0 0 0 0 0 0 127 0" result="hardAlpha"/>
<feOffset dy="4"/>
<feGaussianBlur stdDeviation="2"/>
<feComposite in2="hardAlpha" operator="out"/>
<feColorMatrix type="matrix" values="0 0 0 0 0 0 0 0 0 0 0 0 0 0 0 0 0 0 0.25 0"/>
<feBlend mode="normal" in2="BackgroundImageFix" result="effect1_dropShadow_359_9705"/>
<feBlend mode="normal" in="SourceGraphic" in2="effect1_dropShadow_359_9705" result="shape"/>
</filter>
</defs>
</svg>
