<svg width="60" height="60" viewBox="0 0 60 60" fill="none" xmlns="http://www.w3.org/2000/svg">
<path d="M53.3578 56.2556C54.958 56.2556 56.2555 54.958 56.2555 53.3575V6.64788C56.2555 5.04716 54.9582 3.75 53.3578 3.75H6.6479C5.04717 3.75 3.75 5.04716 3.75 6.64788V53.3575C3.75 54.9578 5.04697 56.2556 6.6479 56.2556H53.3578Z" fill="#3C5A99"/>
<path d="M39.9782 56.2552V35.9221H46.803L47.825 27.998H39.9782V22.9389C39.9782 20.6447 40.6153 19.0813 43.9051 19.0813L48.1012 19.0794V11.992C47.3755 11.8954 44.8847 11.6797 41.9868 11.6797C35.9369 11.6797 31.795 15.3725 31.795 22.1542V27.998H24.9526V35.9221H31.795V56.2552H39.9782Z" fill="white"/>
</svg>
