<svg width="45" height="44" viewBox="0 0 45 44" fill="none" xmlns="http://www.w3.org/2000/svg">
<rect width="45" height="44" rx="22" fill="white"/>
<path d="M17.5445 27.1161C17.7201 26.6169 18.0458 26.1845 18.4766 25.8787C18.9074 25.5729 19.4222 25.4086 19.95 25.4086C20.4778 25.4086 20.9926 25.5729 21.4234 25.8787C21.8542 26.1845 22.1799 26.6169 22.3555 27.1161H31V28.8216H22.3555C22.1799 29.3209 21.8542 29.7532 21.4234 30.059C20.9926 30.3648 20.4778 30.5291 19.95 30.5291C19.4222 30.5291 18.9074 30.3648 18.4766 30.059C18.0458 29.7532 17.7201 29.3209 17.5445 28.8216H14V27.1161H17.5445ZM22.6445 21.1472C22.8201 20.6479 23.1458 20.2155 23.5766 19.9097C24.0074 19.6039 24.5222 19.4397 25.05 19.4397C25.5778 19.4397 26.0926 19.6039 26.5234 19.9097C26.9542 20.2155 27.2799 20.6479 27.4555 21.1472H31V22.8526H27.4555C27.2799 23.3519 26.9542 23.7842 26.5234 24.0901C26.0926 24.3959 25.5778 24.5601 25.05 24.5601C24.5222 24.5601 24.0074 24.3959 23.5766 24.0901C23.1458 23.7842 22.8201 23.3519 22.6445 22.8526H14V21.1472H22.6445ZM17.5445 15.1782C17.7201 14.6789 18.0458 14.2466 18.4766 13.9408C18.9074 13.6349 19.4222 13.4707 19.95 13.4707C20.4778 13.4707 20.9926 13.6349 21.4234 13.9408C21.8542 14.2466 22.1799 14.6789 22.3555 15.1782H31V16.8836H22.3555C22.1799 17.3829 21.8542 17.8153 21.4234 18.1211C20.9926 18.4269 20.4778 18.5911 19.95 18.5911C19.4222 18.5911 18.9074 18.4269 18.4766 18.1211C18.0458 17.8153 17.7201 17.3829 17.5445 16.8836H14V15.1782H17.5445ZM19.95 16.8836C20.1754 16.8836 20.3916 16.7938 20.551 16.6339C20.7104 16.474 20.8 16.2571 20.8 16.0309C20.8 15.8048 20.7104 15.5879 20.551 15.428C20.3916 15.2681 20.1754 15.1782 19.95 15.1782C19.7246 15.1782 19.5084 15.2681 19.349 15.428C19.1896 15.5879 19.1 15.8048 19.1 16.0309C19.1 16.2571 19.1896 16.474 19.349 16.6339C19.5084 16.7938 19.7246 16.8836 19.95 16.8836ZM25.05 22.8526C25.2754 22.8526 25.4916 22.7628 25.651 22.6028C25.8104 22.4429 25.9 22.226 25.9 21.9999C25.9 21.7737 25.8104 21.5568 25.651 21.3969C25.4916 21.237 25.2754 21.1472 25.05 21.1472C24.8246 21.1472 24.6084 21.237 24.449 21.3969C24.2896 21.5568 24.2 21.7737 24.2 21.9999C24.2 22.226 24.2896 22.4429 24.449 22.6028C24.6084 22.7628 24.8246 22.8526 25.05 22.8526ZM19.95 28.8216C20.1754 28.8216 20.3916 28.7317 20.551 28.5718C20.7104 28.4119 20.8 28.195 20.8 27.9689C20.8 27.7427 20.7104 27.5258 20.551 27.3659C20.3916 27.206 20.1754 27.1161 19.95 27.1161C19.7246 27.1161 19.5084 27.206 19.349 27.3659C19.1896 27.5258 19.1 27.7427 19.1 27.9689C19.1 28.195 19.1896 28.4119 19.349 28.5718C19.5084 28.7317 19.7246 28.8216 19.95 28.8216Z" fill="#917AFD"/>
</svg>
