<svg width="24" height="24" viewBox="0 0 24 24" fill="none" xmlns="http://www.w3.org/2000/svg">
<path fill-rule="evenodd" clip-rule="evenodd" d="M11.9999 21.6004C14.546 21.6004 16.9878 20.589 18.7881 18.7886C20.5885 16.9883 21.5999 14.5465 21.5999 12.0004C21.5999 9.45431 20.5885 7.01252 18.7881 5.21217C16.9878 3.41182 14.546 2.40039 11.9999 2.40039C9.45382 2.40039 7.01203 3.41182 5.21168 5.21217C3.41133 7.01252 2.3999 9.45431 2.3999 12.0004C2.3999 14.5465 3.41133 16.9883 5.21168 18.7886C7.01203 20.589 9.45382 21.6004 11.9999 21.6004ZM10.4483 8.75199C10.222 8.5334 9.91886 8.41245 9.60422 8.41518C9.28959 8.41792 8.98861 8.54412 8.76612 8.76661C8.54363 8.9891 8.41743 9.29007 8.41469 9.60471C8.41196 9.91935 8.53291 10.2225 8.7515 10.4488L10.3031 12.0004L8.7515 13.552C8.63689 13.6627 8.54547 13.7951 8.48258 13.9415C8.41969 14.0879 8.38659 14.2454 8.3852 14.4047C8.38382 14.564 8.41418 14.7221 8.47452 14.8695C8.53485 15.017 8.62396 15.151 8.73663 15.2637C8.8493 15.3763 8.98328 15.4654 9.13076 15.5258C9.27823 15.5861 9.43625 15.6165 9.59558 15.6151C9.75492 15.6137 9.91238 15.5806 10.0588 15.5177C10.2052 15.4548 10.3376 15.3634 10.4483 15.2488L11.9999 13.6972L13.5515 15.2488C13.7778 15.4674 14.0809 15.5883 14.3956 15.5856C14.7102 15.5829 15.0112 15.4567 15.2337 15.2342C15.4562 15.0117 15.5824 14.7107 15.5851 14.3961C15.5878 14.0814 15.4669 13.7783 15.2483 13.552L13.6967 12.0004L15.2483 10.4488C15.4669 10.2225 15.5878 9.91935 15.5851 9.60471C15.5824 9.29007 15.4562 8.9891 15.2337 8.76661C15.0112 8.54412 14.7102 8.41792 14.3956 8.41518C14.0809 8.41245 13.7778 8.5334 13.5515 8.75199L11.9999 10.3036L10.4483 8.75199Z" fill="white"/>
</svg>
