<svg width="72" height="69" viewBox="0 0 72 69" fill="none" xmlns="http://www.w3.org/2000/svg">
<path d="M7.49991 29.9998C3.36598 29.9998 0 33.3658 0 37.4997V61.4996C0 65.6336 3.36598 68.9995 7.49991 68.9995H16.4999C18.1889 68.9995 19.7428 68.4296 20.9998 67.4815V29.9998H7.49991Z" fill="#917AFD"/>
<path d="M71.9998 41.2497C71.9998 39.4468 71.2858 37.7667 70.0468 36.5277C71.4478 34.9948 72.1618 32.9397 71.9667 30.8008C71.6157 26.9878 68.1807 23.9998 64.1428 23.9998H45.6119C46.5299 21.2127 47.9999 16.1039 47.9999 11.9999C47.9999 5.49292 42.4709 0 38.9999 0C35.883 0 33.6569 1.75499 33.561 1.82699C33.207 2.11204 33 2.54403 33 2.99994V13.1728L24.3601 31.8898L24.0001 32.0727V64.2266C26.442 65.3786 29.532 65.9996 31.5 65.9996H59.0369C62.3039 65.9996 65.1629 63.7976 65.8348 60.7587C66.1798 59.1956 65.9788 57.6206 65.2919 56.2526C67.5088 55.1367 68.9998 52.8536 68.9998 50.2497C68.9998 49.1877 68.7568 48.1707 68.2949 47.2497C70.5118 46.1338 71.9998 43.8507 71.9998 41.2497Z" fill="#917AFD"/>
</svg>
