<svg width="32" height="32" viewBox="0 0 32 32" fill="none" xmlns="http://www.w3.org/2000/svg">
<path d="M16.29 9.20994L17.79 10.7099C17.883 10.8037 17.9936 10.8781 18.1154 10.9288C18.2373 10.9796 18.368 11.0057 18.5 11.0057C18.632 11.0057 18.7627 10.9796 18.8846 10.9288C19.0064 10.8781 19.117 10.8037 19.21 10.7099C19.3618 10.5506 19.4567 10.3457 19.4803 10.127C19.5038 9.90824 19.4545 9.68784 19.34 9.49994H23C23.2652 9.49994 23.5196 9.39458 23.7071 9.20705C23.8946 9.01951 24 8.76516 24 8.49994C24 8.23472 23.8946 7.98037 23.7071 7.79283C23.5196 7.6053 23.2652 7.49994 23 7.49994H19.34C19.4545 7.31204 19.5038 7.09164 19.4803 6.87289C19.4567 6.65413 19.3618 6.44923 19.21 6.28994C19.117 6.19621 19.0064 6.12182 18.8846 6.07105C18.7627 6.02028 18.632 5.99414 18.5 5.99414C18.368 5.99414 18.2373 6.02028 18.1154 6.07105C17.9936 6.12182 17.883 6.19621 17.79 6.28994L16.29 7.78994C16.199 7.88504 16.1276 7.99719 16.08 8.11994C15.98 8.3634 15.98 8.63648 16.08 8.87994C16.1276 9.00269 16.199 9.11484 16.29 9.20994ZM26.92 13.1199C26.8724 12.9972 26.801 12.885 26.71 12.7899L25.21 11.2899C25.117 11.1962 25.0064 11.1218 24.8846 11.071C24.7627 11.0203 24.632 10.9941 24.5 10.9941C24.368 10.9941 24.2373 11.0203 24.1154 11.071C23.9936 11.1218 23.883 11.1962 23.79 11.2899C23.6382 11.4492 23.5433 11.6541 23.5197 11.8729C23.4962 12.0916 23.5455 12.312 23.66 12.4999H20C19.7348 12.4999 19.4804 12.6053 19.2929 12.7928C19.1054 12.9804 19 13.2347 19 13.4999C19 13.7652 19.1054 14.0195 19.2929 14.207C19.4804 14.3946 19.7348 14.4999 20 14.4999H23.66C23.5455 14.6878 23.4962 14.9082 23.5197 15.127C23.5433 15.3457 23.6382 15.5506 23.79 15.7099C23.883 15.8037 23.9936 15.8781 24.1154 15.9288C24.2373 15.9796 24.368 16.0057 24.5 16.0057C24.632 16.0057 24.7627 15.9796 24.8846 15.9288C25.0064 15.8781 25.117 15.8037 25.21 15.7099L26.71 14.2099C26.801 14.1148 26.8724 14.0027 26.92 13.8799C27.02 13.6365 27.02 13.3634 26.92 13.1199ZM15 13.9999C14.2089 13.9999 13.4355 14.2345 12.7777 14.6741C12.1199 15.1136 11.6072 15.7383 11.3045 16.4692C11.0017 17.2001 10.9225 18.0044 11.0769 18.7803C11.2312 19.5562 11.6122 20.269 12.1716 20.8284C12.731 21.3878 13.4437 21.7687 14.2196 21.9231C14.9956 22.0774 15.7998 21.9982 16.5307 21.6955C17.2616 21.3927 17.8864 20.88 18.3259 20.2222C18.7654 19.5644 19 18.7911 19 17.9999C19 16.9391 18.5786 15.9217 17.8284 15.1715C17.0783 14.4214 16.0609 13.9999 15 13.9999ZM15 19.9999C14.6044 19.9999 14.2178 19.8826 13.8889 19.6629C13.56 19.4431 13.3036 19.1308 13.1522 18.7653C13.0009 18.3999 12.9613 17.9977 13.0384 17.6098C13.1156 17.2218 13.3061 16.8654 13.5858 16.5857C13.8655 16.306 14.2219 16.1155 14.6098 16.0384C14.9978 15.9612 15.3999 16.0008 15.7654 16.1522C16.1308 16.3036 16.4432 16.5599 16.6629 16.8888C16.8827 17.2177 17 17.6044 17 17.9999C17 18.5304 16.7893 19.0391 16.4142 19.4142C16.0391 19.7892 15.5304 19.9999 15 19.9999ZM24 16.9999C23.7348 16.9999 23.4804 17.1053 23.2929 17.2928C23.1054 17.4804 23 17.7347 23 17.9999V22.9999C23 23.2652 22.8946 23.5195 22.7071 23.707C22.5196 23.8946 22.2652 23.9999 22 23.9999H8C7.73478 23.9999 7.48043 23.8946 7.29289 23.707C7.10536 23.5195 7 23.2652 7 22.9999V14.9999C7 14.7347 7.10536 14.4804 7.29289 14.2928C7.48043 14.1053 7.73478 13.9999 8 13.9999H10C10.2193 14.0107 10.4361 13.9489 10.6168 13.8242C10.7975 13.6995 10.9322 13.5188 11 13.3099L11.54 11.6899C11.6025 11.4973 11.722 11.3282 11.8827 11.205C12.0434 11.0818 12.2378 11.0103 12.44 10.9999H14C14.2652 10.9999 14.5196 10.8946 14.7071 10.707C14.8946 10.5195 15 10.2652 15 9.99994C15 9.73472 14.8946 9.48037 14.7071 9.29283C14.5196 9.1053 14.2652 8.99994 14 8.99994H12.44C11.8086 8.99971 11.1932 9.19871 10.6815 9.56858C10.1698 9.93845 9.78784 10.4603 9.59 11.0599L9.28 11.9999H8C7.20435 11.9999 6.44129 12.316 5.87868 12.8786C5.31607 13.4412 5 14.2043 5 14.9999V22.9999C5 23.7956 5.31607 24.5587 5.87868 25.1213C6.44129 25.6839 7.20435 25.9999 8 25.9999H22C22.7956 25.9999 23.5587 25.6839 24.1213 25.1213C24.6839 24.5587 25 23.7956 25 22.9999V17.9999C25 17.7347 24.8946 17.4804 24.7071 17.2928C24.5196 17.1053 24.2652 16.9999 24 16.9999Z" fill="black"/>
</svg>
