<svg width="64" height="60" viewBox="0 0 64 60" fill="none" xmlns="http://www.w3.org/2000/svg">
<ellipse cx="31.8461" cy="30" rx="27.8654" ry="26.25" fill="#4087FC"/>
<path d="M16.4538 18.75C15.0614 18.75 13.9326 19.9492 13.9326 21.4286V34.4196C13.9326 38.1919 16.811 41.25 20.3616 41.25L35.2961 41.1161C36.6885 41.1161 37.8172 39.9169 37.8172 38.4375V25.3125C37.8172 21.5402 34.4015 18.75 30.8509 18.75L16.4538 18.75Z" fill="white"/>
<path d="M41.2252 23.8642C40.3242 24.7034 39.8076 25.9146 39.8076 27.1875V32.6237C39.8076 33.8967 40.3242 35.1078 41.2252 35.947L46.8313 40.5984C47.972 41.6609 49.7595 40.8002 49.7595 39.1885V20.8784C49.7595 19.2666 47.972 18.406 46.8313 19.4685L41.2252 23.8642Z" fill="white"/>
</svg>
