<?xml version="1.0" standalone="no"?>
<!DOCTYPE svg PUBLIC "-//W3C//DTD SVG 20010904//EN"
 "http://www.w3.org/TR/2001/REC-SVG-20010904/DTD/svg10.dtd">
<svg version="1.0" xmlns="http://www.w3.org/2000/svg"
 width="457.000000pt" height="453.000000pt" viewBox="0 0 457.000000 453.000000"
 preserveAspectRatio="xMidYMid meet">

<g transform="translate(0.000000,453.000000) scale(0.100000,-0.100000)"
fill="#000000" stroke="none">
<path d="M2606 4054 c-269 -178 -490 -324 -492 -324 -1 0 -146 95 -321 211
-174 117 -323 212 -329 213 -16 1 -1292 -846 -1298 -861 -9 -21 5 -43 26 -43
11 0 301 187 645 416 l625 415 295 -196 c163 -108 291 -200 287 -204 -5 -4
-62 -42 -126 -84 -73 -47 -118 -83 -118 -93 0 -26 168 -274 186 -274 8 0 40
16 70 35 30 19 57 35 59 35 3 0 5 -42 5 -93 l0 -94 -77 -26 -78 -26 -222 147
c-121 81 -235 155 -253 166 l-31 19 -172 -115 c-95 -64 -387 -258 -650 -433
-372 -246 -478 -321 -474 -334 7 -28 167 -262 183 -268 8 -3 39 11 69 31 30
20 57 36 60 36 3 0 6 -246 7 -546 3 -498 4 -548 20 -557 12 -8 21 -7 32 2 14
12 16 76 16 585 l0 571 456 303 456 303 115 -76 c63 -42 113 -79 111 -83 -2
-4 -15 -30 -30 -59 -15 -28 -38 -87 -50 -130 -20 -71 -22 -101 -22 -338 -1
-254 0 -261 23 -305 22 -42 42 -63 85 -85 11 -5 27 -30 35 -55 9 -25 26 -63
37 -85 25 -45 123 -141 172 -167 29 -16 32 -21 32 -65 l0 -49 -57 -28 c-32
-15 -87 -45 -123 -65 -36 -21 -123 -71 -195 -111 -183 -103 -349 -214 -426
-287 -60 -57 -69 -71 -92 -140 -41 -127 -51 -219 -52 -466 0 -212 2 -230 19
-243 13 -9 24 -10 36 -4 16 9 17 25 12 183 -7 254 18 459 69 558 35 69 226
205 503 360 l149 83 19 -24 c11 -14 61 -88 112 -165 70 -107 96 -140 112 -140
15 0 48 32 109 108 l88 109 26 -34 c102 -131 149 -183 167 -186 17 -2 41 28
133 168 l111 171 68 -37 c86 -48 277 -160 321 -190 l33 -22 2 -124 c2 -105 6
-133 28 -190 46 -121 129 -222 238 -289 49 -30 51 -33 46 -68 -3 -20 -8 -88
-11 -152 -6 -98 -4 -117 8 -122 42 -16 66 64 67 222 l0 63 28 -6 c59 -14 218
-18 273 -7 136 28 290 139 363 260 109 182 107 417 -5 592 -40 62 -153 169
-207 194 l-42 20 0 423 c0 264 -4 430 -10 442 -13 24 -209 192 -220 188 -5 -2
-56 -43 -114 -93 l-106 -89 0 -208 c0 -226 -5 -206 59 -256 l24 -19 -41 -52
-42 -53 0 -138 0 -138 -57 -32 c-80 -45 -181 -150 -222 -233 -19 -37 -35 -67
-36 -67 -2 0 -45 26 -96 59 -115 72 -241 142 -388 215 l-111 56 0 48 c1 45 2
48 41 66 68 31 154 120 194 198 19 39 35 77 35 84 0 7 19 26 43 41 49 34 86
94 86 143 0 19 -3 148 -8 285 -9 271 -15 307 -75 420 -17 33 -32 63 -34 68 -2
4 179 7 402 7 390 0 406 1 416 19 6 12 10 98 10 209 0 169 -2 191 -18 205 -16
15 -70 17 -526 17 -326 0 -515 -4 -527 -11 -17 -8 -19 -22 -19 -109 0 -55 -1
-100 -3 -100 -2 0 -37 12 -78 26 -54 20 -103 28 -183 33 l-109 6 -2 107 c-1
59 1 111 4 117 3 5 210 145 458 310 l452 300 453 -301 c249 -165 454 -304 456
-308 1 -3 4 -262 5 -575 2 -510 4 -569 18 -578 9 -6 24 -7 33 -4 15 6 16 56
16 557 0 302 2 550 5 550 3 0 29 -16 58 -35 28 -19 59 -35 68 -35 15 0 176
233 186 269 3 13 -58 59 -274 201 -153 102 -280 186 -282 187 -2 1 -3 88 -3
192 1 149 -1 191 -12 200 -9 8 -53 11 -127 9 l-114 -3 -3 -108 c-2 -83 -6
-108 -15 -104 -7 3 -107 68 -222 144 -116 77 -219 145 -231 151 -18 9 -80 -29
-508 -314z m1096 -155 c332 -220 604 -405 606 -409 2 -5 -22 -47 -54 -94 l-56
-85 -38 24 c-21 13 -262 173 -536 356 -275 183 -508 334 -519 337 -15 2 -180
-102 -535 -338 -283 -188 -527 -350 -542 -361 l-27 -19 -61 90 -60 89 98 66
c158 107 1117 745 1119 745 1 0 274 -180 605 -401z m68 185 c0 -81 -4 -134
-10 -134 -5 0 -33 15 -61 33 l-51 32 -1 102 -2 102 45 3 c84 6 80 12 80 -138z
m-2087 -919 c114 -76 207 -141 207 -145 0 -4 -17 -19 -38 -33 -21 -15 -55 -45
-77 -67 -21 -22 -43 -40 -47 -40 -5 0 -66 39 -137 86 l-129 86 -539 -358
c-296 -196 -545 -359 -553 -361 -15 -4 -115 139 -115 165 0 15 1195 813 1211
808 6 -2 104 -66 217 -141z m1385 -17 l3 -58 -224 0 -223 0 2 58 c2 31 3 58 4
60 0 1 98 1 218 0 l217 -3 3 -57z m512 2 l0 -60 -219 0 -218 0 -6 33 c-3 18
-3 45 0 60 l5 27 219 0 219 0 0 -60z m-1160 -116 c156 -44 306 -166 374 -305
55 -114 66 -171 66 -352 0 -146 -1 -158 -17 -155 -15 3 -19 18 -23 96 -5 93
-5 94 -42 128 -35 31 -43 34 -100 34 -143 -1 -875 -48 -899 -58 -42 -17 -69
-70 -69 -136 0 -51 -2 -57 -26 -66 -14 -6 -27 -10 -30 -10 -11 0 -3 286 11
355 56 296 331 509 630 489 39 -3 95 -12 125 -20z m645 -77 l0 -58 -152 0
-152 0 -52 51 c-30 27 -57 50 -61 50 -4 0 -8 5 -8 10 0 7 73 9 213 8 l212 -3
0 -58z m510 -2 c0 -42 -4 -60 -12 -59 -7 1 -105 2 -218 3 l-205 1 0 60 0 60
218 -2 217 -3 0 -60z m-837 -557 c8 -8 12 -47 12 -109 0 -106 10 -129 55 -129
43 0 81 -58 69 -108 -14 -56 -33 -81 -74 -93 -35 -11 -41 -17 -50 -53 -42
-167 -159 -271 -351 -312 -84 -18 -230 -14 -314 9 -161 45 -268 150 -306 301
-10 42 -15 47 -51 57 -34 9 -43 17 -60 56 -17 40 -19 51 -9 85 12 39 27 51 83
62 31 7 39 32 36 115 -2 72 19 91 106 92 33 0 192 9 351 18 366 23 487 25 503
9z m902 -172 c0 -169 1 -175 21 -181 38 -12 44 8 49 186 l5 170 57 -51 58 -51
2 -437 3 -437 65 -34 c186 -98 297 -319 261 -519 -44 -246 -243 -414 -491
-414 -198 0 -363 107 -447 290 -60 128 -58 289 3 419 38 79 139 182 218 222
36 19 67 40 70 48 3 8 6 78 6 154 l0 140 50 62 c28 34 50 65 50 69 0 10 -40
47 -72 66 l-28 16 0 181 0 180 52 47 c29 26 56 47 61 48 4 0 7 -78 7 -174z
m-1460 -707 c80 -10 226 -1 275 17 12 5 15 -2 15 -32 -1 -38 -5 -42 -108 -121
-120 -92 -106 -90 -192 -21 -140 112 -134 106 -135 144 -1 35 0 36 29 30 17
-3 69 -10 116 -17z m-77 -189 c53 -41 96 -77 97 -80 0 -9 -132 -170 -140 -170
-7 0 -166 238 -176 265 -4 11 102 68 117 62 3 -1 49 -36 102 -77z m462 53 c30
-15 55 -32 55 -38 0 -5 -35 -63 -78 -127 -42 -64 -81 -124 -87 -133 -8 -14
-21 -2 -77 69 -38 46 -68 89 -68 95 0 7 187 160 197 161 2 0 27 -12 58 -27z"/>
<path d="M3644 1747 c-2 -7 -3 -82 -2 -167 3 -144 4 -155 22 -158 37 -8 46 24
46 166 0 73 -5 142 -10 153 -12 22 -48 26 -56 6z"/>
<path d="M3586 830 c-63 -56 -71 -139 -20 -200 79 -94 244 -36 244 86 0 88
-55 144 -142 144 -38 0 -54 -6 -82 -30z m139 -60 c25 -27 22 -80 -6 -102 -30
-25 -66 -22 -94 7 -29 28 -32 61 -9 93 20 29 83 31 109 2z"/>
<path d="M932 2278 c-17 -17 -17 -409 0 -426 15 -15 324 -17 333 -2 3 5 6 102
6 216 0 160 -3 209 -13 215 -21 14 -312 11 -326 -3z m278 -118 l0 -60 -110 0
-110 0 0 60 0 60 110 0 110 0 0 -60z m-2 -192 l3 -58 -111 0 -110 0 0 60 0 61
108 -3 107 -3 3 -57z"/>
<path d="M353 2083 c-10 -3 -13 -73 -13 -299 0 -264 2 -295 16 -301 9 -3 24
-2 33 4 14 9 16 45 19 287 3 311 -1 331 -55 309z"/>
<path d="M943 1670 c-23 -9 -23 -11 -23 -209 0 -110 3 -206 6 -215 5 -14 30
-16 169 -16 103 0 166 4 170 10 4 6 6 102 6 213 -1 171 -3 204 -17 214 -19 14
-279 16 -311 3z m265 -122 l3 -58 -111 0 -110 0 0 60 0 61 108 -3 107 -3 3
-57z m0 -190 l3 -58 -111 0 -110 0 0 60 0 61 108 -3 107 -3 3 -57z"/>
<path d="M346 1398 c-35 -20 -7 -76 33 -63 36 11 37 58 2 68 -10 2 -26 0 -35
-5z"/>
<path d="M1517 613 c-4 -3 -7 -111 -7 -239 0 -220 1 -234 19 -244 15 -7 23 -6
35 6 14 13 16 49 16 234 0 120 -3 225 -6 234 -6 16 -45 22 -57 9z"/>
<path d="M2896 605 c-3 -9 -6 -115 -6 -235 0 -185 2 -221 16 -234 12 -12 20
-13 35 -6 18 10 19 22 17 248 l-3 237 -26 3 c-17 2 -29 -3 -33 -13z"/>
</g>
</svg>
