<svg width="15" height="15" viewBox="0 0 15 15" fill="none" xmlns="http://www.w3.org/2000/svg">
<path d="M10.625 3.5693C10.625 5.19334 8.72135 8.08745 7.88542 9.25342C7.6849 9.56573 7.3151 9.56573 7.11458 9.25342C6.27865 8.08745 4.375 5.19334 4.375 3.5693C4.375 1.59816 5.77344 0 7.5 0C9.22656 0 10.625 1.59816 10.625 3.5693ZM7.5 4.52112C8.07552 4.52112 8.54167 3.9887 8.54167 3.33135C8.54167 2.6743 8.07552 2.14158 7.5 2.14158C6.92448 2.14158 6.45833 2.6743 6.45833 3.33135C6.45833 3.9887 6.92448 4.52112 7.5 4.52112ZM11.0833 5.34801C11.0964 5.31231 11.1094 5.27662 11.1224 5.23795L14.1432 3.85782C14.5547 3.67043 15 4.01547 15 4.52112V12.5758C15 12.8673 14.8438 13.1291 14.6068 13.2391L10.8333 14.9613V5.96074C10.9245 5.7555 11.0078 5.55324 11.0833 5.34801ZM3.91667 5.34801C3.99219 5.55324 4.07552 5.7555 4.16667 5.96074V13.4384L0.857031 14.9524C0.446615 15.113 0 14.7948 0 14.2891V6.23438C0 5.94289 0.155599 5.65437 0.392969 5.57109L3.58333 4.11362C3.64583 4.53599 3.77344 4.95538 3.91667 5.34801ZM8.53646 9.8483C8.89844 9.35753 9.46615 8.51576 10 7.58477V15L5 13.367V7.58477C5.53385 8.51576 6.10156 9.35753 6.46354 9.8483C6.9974 10.6365 8.0026 10.6365 8.53646 9.8483Z" fill="#917AFD"/>
</svg>
