<svg width="22" height="22" viewBox="0 0 22 22" fill="none" xmlns="http://www.w3.org/2000/svg">
<path fill-rule="evenodd" clip-rule="evenodd" d="M17.2929 4.69683C17.6935 4.83708 17.9612 5.21475 17.9612 5.63916V11.8477C17.9612 13.5829 17.3305 15.2393 16.2168 16.5226C15.6567 17.1689 14.9481 17.6721 14.1955 18.0791L10.9341 19.841L7.66709 18.0782C6.91359 17.6712 6.2041 17.1689 5.64311 16.5217C4.52845 15.2384 3.89595 13.5811 3.89595 11.844V5.63916C3.89595 5.21475 4.16362 4.83708 4.5642 4.69683L10.5976 2.5766C10.8121 2.50144 11.0459 2.50144 11.2595 2.5766L17.2929 4.69683Z" stroke="#917AFD" stroke-linecap="round" stroke-linejoin="round"/>
<path d="M8.5458 10.9246L10.2801 12.6598L13.8533 9.08668" stroke="#917AFD" stroke-linecap="round" stroke-linejoin="round"/>
</svg>
