<svg width="21" height="21" viewBox="0 0 21 21" fill="none" xmlns="http://www.w3.org/2000/svg">
<path d="M17.4999 8.74989C17.4999 12.6156 10.4999 19.2499 10.4999 19.2499C10.4999 19.2499 3.49996 12.6156 3.49996 8.74989C3.49996 6.89338 4.23745 5.11291 5.5502 3.80016C6.86295 2.48741 8.64343 1.74992 10.4999 1.74992C12.3564 1.74992 14.1369 2.48741 15.4497 3.80016C16.7624 5.11291 17.4999 6.89338 17.4999 8.74989V8.74989Z" stroke="#53587A" stroke-width="1.25"/>
<path d="M10.4999 9.44984C10.7784 9.44984 11.0455 9.33922 11.2424 9.14231C11.4393 8.94539 11.5499 8.67832 11.5499 8.39985C11.5499 8.12137 11.4393 7.8543 11.2424 7.65739C11.0455 7.46048 10.7784 7.34985 10.4999 7.34985C10.2215 7.34985 9.9544 7.46048 9.75749 7.65739C9.56057 7.8543 9.44995 8.12137 9.44995 8.39985C9.44995 8.67832 9.56057 8.94539 9.75749 9.14231C9.9544 9.33922 10.2215 9.44984 10.4999 9.44984Z" fill="#53587A" stroke="#53587A" stroke-width="1.25" stroke-linecap="round" stroke-linejoin="round"/>
</svg>
