<svg width="17" height="18" viewBox="0 0 17 18" fill="none" xmlns="http://www.w3.org/2000/svg">
<path d="M3.5445 13.6454C3.72011 13.1462 4.04578 12.7138 4.47661 12.408C4.90744 12.1022 5.42222 11.9379 5.95 11.9379C6.47778 11.9379 6.99256 12.1022 7.42339 12.408C7.85422 12.7138 8.17989 13.1462 8.3555 13.6454H17V15.3509H8.3555C8.17989 15.8501 7.85422 16.2825 7.42339 16.5883C6.99256 16.8941 6.47778 17.0584 5.95 17.0584C5.42222 17.0584 4.90744 16.8941 4.47661 16.5883C4.04578 16.2825 3.72011 15.8501 3.5445 15.3509H0V13.6454H3.5445ZM8.6445 7.67647C8.82011 7.17719 9.14578 6.74483 9.57661 6.43901C10.0074 6.13319 10.5222 5.96897 11.05 5.96897C11.5778 5.96897 12.0926 6.13319 12.5234 6.43901C12.9542 6.74483 13.2799 7.17719 13.4555 7.67647H17V9.38189H13.4555C13.2799 9.88118 12.9542 10.3135 12.5234 10.6194C12.0926 10.9252 11.5778 11.0894 11.05 11.0894C10.5222 11.0894 10.0074 10.9252 9.57661 10.6194C9.14578 10.3135 8.82011 9.88118 8.6445 9.38189H0V7.67647H8.6445ZM3.5445 1.70751C3.72011 1.20822 4.04578 0.775867 4.47661 0.470048C4.90744 0.164228 5.42222 0 5.95 0C6.47778 0 6.99256 0.164228 7.42339 0.470048C7.85422 0.775867 8.17989 1.20822 8.3555 1.70751H17V3.41293H8.3555C8.17989 3.91222 7.85422 4.34457 7.42339 4.65039C6.99256 4.95621 6.47778 5.12044 5.95 5.12044C5.42222 5.12044 4.90744 4.95621 4.47661 4.65039C4.04578 4.34457 3.72011 3.91222 3.5445 3.41293H0V1.70751H3.5445ZM5.95 3.41293C6.17543 3.41293 6.39163 3.32309 6.55104 3.16317C6.71045 3.00326 6.8 2.78637 6.8 2.56022C6.8 2.33407 6.71045 2.11718 6.55104 1.95726C6.39163 1.79735 6.17543 1.70751 5.95 1.70751C5.72457 1.70751 5.50837 1.79735 5.34896 1.95726C5.18955 2.11718 5.1 2.33407 5.1 2.56022C5.1 2.78637 5.18955 3.00326 5.34896 3.16317C5.50837 3.32309 5.72457 3.41293 5.95 3.41293ZM11.05 9.38189C11.2754 9.38189 11.4916 9.29205 11.651 9.13214C11.8104 8.97223 11.9 8.75534 11.9 8.52918C11.9 8.30303 11.8104 8.08614 11.651 7.92623C11.4916 7.76631 11.2754 7.67647 11.05 7.67647C10.8246 7.67647 10.6084 7.76631 10.449 7.92623C10.2896 8.08614 10.2 8.30303 10.2 8.52918C10.2 8.75534 10.2896 8.97223 10.449 9.13214C10.6084 9.29205 10.8246 9.38189 11.05 9.38189ZM5.95 15.3509C6.17543 15.3509 6.39163 15.261 6.55104 15.1011C6.71045 14.9412 6.8 14.7243 6.8 14.4981C6.8 14.272 6.71045 14.0551 6.55104 13.8952C6.39163 13.7353 6.17543 13.6454 5.95 13.6454C5.72457 13.6454 5.50837 13.7353 5.34896 13.8952C5.18955 14.0551 5.1 14.272 5.1 14.4981C5.1 14.7243 5.18955 14.9412 5.34896 15.1011C5.50837 15.261 5.72457 15.3509 5.95 15.3509Z" fill="#917AFD"/>
</svg>
