<svg width="13" height="11" viewBox="0 0 13 11" fill="none" xmlns="http://www.w3.org/2000/svg">
<path d="M2.77292 0.221973C2.71769 0.156648 2.65065 0.103475 2.57569 0.0655352C2.50073 0.0275956 2.41934 0.00564406 2.33623 0.00095292C2.25312 -0.00373822 2.16996 0.00892433 2.09155 0.0382067C2.01314 0.067489 1.94105 0.112809 1.87946 0.171539C1.81787 0.23027 1.76799 0.301243 1.73274 0.380345C1.69748 0.459447 1.67754 0.545105 1.67406 0.632354C1.67059 0.719603 1.68365 0.806708 1.7125 0.88862C1.74134 0.970533 1.7854 1.04562 1.84211 1.10954L2.68068 2.08014C0.875124 3.34165 0.091581 5.15198 0.0538451 5.23722C0.0183383 5.32169 0 5.41299 0 5.50531C0 5.59762 0.0183383 5.68892 0.0538451 5.77339C0.0732371 5.81848 0.532357 6.88752 1.54703 7.95161C2.90343 9.37315 4.6136 10.1243 6.50039 10.1243C7.41739 10.1297 8.32617 9.9427 9.17335 9.57442L10.2263 10.7897C10.3391 10.9168 10.495 10.9922 10.6604 10.9994C10.8257 11.0067 10.9871 10.9452 11.1096 10.8285C11.2321 10.7117 11.3058 10.5489 11.3146 10.3755C11.3235 10.2022 11.2669 10.0321 11.1571 9.90217L2.77292 0.221973ZM6.50039 8.80453C4.94955 8.80453 3.59316 8.21447 2.46947 7.0514C2.02746 6.59219 1.64713 6.07195 1.33896 5.50503C1.61517 4.99306 2.32376 3.86078 3.54022 3.06945L8.26192 8.51968C7.6925 8.71045 7.09813 8.80657 6.50039 8.80453ZM12.9469 5.77339C12.9281 5.81793 12.4752 6.87322 11.4794 7.92687C11.4224 7.99328 11.3531 8.04685 11.2758 8.08431C11.1984 8.12178 11.1146 8.14237 11.0295 8.14483C10.9443 8.14729 10.8596 8.13157 10.7804 8.09862C10.7012 8.06568 10.6292 8.01619 10.5687 7.95317C10.5083 7.89015 10.4607 7.81491 10.4289 7.73201C10.397 7.64911 10.3815 7.56028 10.3834 7.47091C10.3852 7.38154 10.4043 7.2935 10.4396 7.21212C10.4748 7.13074 10.5255 7.05773 10.5884 6.99751C11.0067 6.55126 11.3676 6.04951 11.6618 5.50503C11.3538 4.93798 10.9735 4.41772 10.5313 3.95866C9.4071 2.79559 8.05123 2.20553 6.50039 2.20553C6.32481 2.20553 6.14924 2.21322 5.97628 2.22862C5.89293 2.23799 5.80864 2.22978 5.72836 2.20448C5.64808 2.17918 5.57343 2.1373 5.5088 2.08129C5.44417 2.02529 5.39086 1.95629 5.352 1.87836C5.31315 1.80042 5.28953 1.71513 5.28254 1.62748C5.27556 1.53984 5.28534 1.45161 5.31131 1.36799C5.33729 1.28436 5.37893 1.20703 5.4338 1.14054C5.48867 1.07405 5.55565 1.01973 5.63081 0.980788C5.70597 0.941845 5.78779 0.919059 5.87146 0.913769C6.07744 0.895072 6.29075 0.885723 6.50039 0.885723C8.38719 0.885723 10.0974 1.63746 11.4527 3.059C12.4669 4.12309 12.926 5.19268 12.9454 5.23722C12.9811 5.32157 12.9997 5.41282 13 5.50513C13.0003 5.59745 12.9822 5.68881 12.9469 5.77339Z" fill="white"/>
</svg>
