<?xml version="1.0" standalone="no"?>
<!DOCTYPE svg PUBLIC "-//W3C//DTD SVG 20010904//EN"
 "http://www.w3.org/TR/2001/REC-SVG-20010904/DTD/svg10.dtd">
<svg version="1.0" xmlns="http://www.w3.org/2000/svg"
 width="512.000000pt" height="512.000000pt" viewBox="0 0 512.000000 512.000000"
 preserveAspectRatio="xMidYMid meet">

<g transform="translate(0.000000,512.000000) scale(0.100000,-0.100000)"
fill="#000000" stroke="none">
<path d="M2515 4751 c-11 -5 -571 -561 -1245 -1235 l-1225 -1226 0 -50 c0 -43
5 -54 33 -82 l32 -33 285 -3 285 -3 2 -844 3 -845 33 -32 32 -33 1810 0 1810
0 32 33 33 32 3 845 2 844 285 3 285 3 32 33 c28 28 33 39 33 82 l0 50 -477
477 -478 478 -2 562 -3 563 -33 32 -32 33 -370 0 -370 0 -32 -33 -33 -32 -3
-122 -4 -121 -312 312 c-290 290 -315 313 -352 317 -21 2 -48 0 -59 -5z m423
-653 l372 -373 50 0 c43 0 54 5 82 33 l33 32 3 205 3 205 199 0 199 0 3 -525
3 -525 394 -394 395 -395 -202 -3 -202 -3 -32 -33 -33 -32 -3 -845 -2 -845
-1640 0 -1640 0 -2 845 -3 845 -33 32 -32 33 -202 3 -202 3 1055 1055 c580
580 1056 1054 1059 1054 3 0 173 -168 378 -372z"/>
<path d="M2515 2991 c-11 -5 -31 -21 -45 -36 l-25 -27 -3 -363 -3 -364 -364
-3 -365 -3 -32 -33 c-28 -28 -33 -39 -33 -82 0 -43 5 -54 33 -82 l32 -33 365
-3 364 -3 3 -364 3 -365 33 -32 c28 -28 39 -33 82 -33 43 0 54 5 82 33 l33 32
3 365 3 364 364 3 365 3 32 33 c28 28 33 39 33 82 0 43 -5 54 -33 82 l-32 33
-365 3 -364 3 -3 364 -3 365 -31 31 c-33 33 -92 46 -129 30z"/>
</g>
</svg>
