<?xml version="1.0" standalone="no"?>
<!DOCTYPE svg PUBLIC "-//W3C//DTD SVG 20010904//EN"
 "http://www.w3.org/TR/2001/REC-SVG-20010904/DTD/svg10.dtd">
<svg version="1.0" xmlns="http://www.w3.org/2000/svg"
 width="322.000000pt" height="312.000000pt" viewBox="0 0 322.000000 312.000000"
 preserveAspectRatio="xMidYMid meet">

<g transform="translate(0.000000,312.000000) scale(0.100000,-0.100000)"
fill="#000000" stroke="none">
<path d="M725 3031 c-75 -35 -115 -102 -115 -194 l0 -54 -71 -6 c-146 -12
-285 -110 -352 -247 l-32 -65 0 -1020 0 -1020 32 -65 c46 -94 116 -163 210
-208 l78 -37 1109 -3 c1213 -3 1172 -4 1274 55 69 40 136 114 174 190 l33 68
5 955 c3 525 2 984 -2 1020 -12 119 -77 228 -178 299 -66 46 -165 81 -232 81
l-48 0 0 58 c0 111 -75 200 -178 210 -128 12 -221 -76 -222 -210 l0 -58 -600
0 -600 0 0 60 c0 157 -146 255 -285 191z m130 -87 c58 -27 67 -59 63 -226 -3
-144 -4 -148 -29 -174 -35 -35 -94 -42 -136 -15 -45 28 -56 77 -51 232 3 125
4 128 32 158 25 26 39 33 79 40 5 0 24 -6 42 -15z m1630 -25 l30 -29 2 -138
c2 -79 -2 -151 -8 -170 -12 -37 -60 -72 -99 -72 -35 0 -89 35 -100 66 -17 44
-13 290 6 325 32 63 114 71 169 18z m-1874 -299 c6 -72 23 -112 66 -152 37
-35 73 -48 134 -48 118 0 189 69 198 194 l6 71 595 0 595 0 6 -72 c9 -124 71
-185 194 -191 68 -4 73 -2 115 30 60 45 83 88 89 167 l6 66 55 -3 c97 -6 203
-69 255 -153 45 -71 55 -129 55 -331 l0 -188 -1371 0 -1371 0 4 213 c3 202 4
214 28 262 50 102 146 177 249 195 83 14 85 13 92 -60z m2367 -1437 l-3 -728
-28 -56 c-33 -69 -99 -132 -175 -167 l-57 -27 -1105 0 -1105 0 -62 29 c-73 33
-143 103 -176 173 l-22 48 -3 728 -3 727 1371 0 1371 0 -3 -727z"/>
<path d="M707 1572 c-15 -16 -17 -45 -17 -195 0 -170 1 -176 22 -191 18 -13
55 -16 194 -16 153 0 173 2 187 18 25 27 25 362 1 386 -13 13 -45 16 -193 16
-160 0 -180 -2 -194 -18z m308 -192 l0 -110 -112 0 -113 0 0 110 0 110 113 0
112 0 0 -110z"/>
<path d="M1417 1572 c-15 -16 -17 -45 -17 -194 0 -157 2 -177 18 -191 16 -15
45 -17 194 -17 157 0 177 2 191 18 15 16 17 45 17 194 0 157 -2 177 -18 191
-16 15 -45 17 -194 17 -157 0 -177 -2 -191 -18z m303 -192 l0 -110 -110 0
-110 0 0 110 0 110 110 0 110 0 0 -110z"/>
<path d="M2127 1572 c-15 -16 -17 -45 -17 -194 0 -157 2 -177 18 -191 16 -15
45 -17 194 -17 157 0 177 2 191 18 14 16 17 44 17 188 0 231 16 214 -209 214
-160 0 -180 -2 -194 -18z m303 -192 l0 -110 -112 0 -113 0 2 107 c1 60 2 109
3 111 0 1 50 2 110 2 l110 0 0 -110z"/>
<path d="M700 921 c-16 -30 -13 -352 4 -373 12 -16 34 -18 198 -18 130 0 188
4 196 12 17 17 17 369 0 386 -8 8 -67 12 -200 12 -175 0 -188 -1 -198 -19z
m313 -183 l-2 -113 -111 -3 -110 -3 0 116 0 115 113 0 112 0 -2 -112z"/>
<path d="M1410 921 c-6 -11 -10 -90 -10 -186 0 -96 4 -175 10 -186 10 -18 23
-19 200 -19 177 0 190 1 200 19 6 11 10 90 10 186 0 96 -4 175 -10 186 -10 18
-23 19 -200 19 -177 0 -190 -1 -200 -19z m310 -186 l0 -115 -110 0 -110 0 0
115 0 115 110 0 110 0 0 -115z"/>
<path d="M2363 798 l-92 -92 -45 42 c-48 45 -61 49 -88 29 -16 -13 -22 -29
-19 -54 2 -22 126 -143 146 -143 10 0 71 53 137 117 94 93 118 123 118 145 0
27 -23 48 -52 48 -7 0 -54 -41 -105 -92z"/>
</g>
</svg>
