<svg width="18" height="20" viewBox="0 0 18 20" fill="none" xmlns="http://www.w3.org/2000/svg">
<path d="M5.76571 5.83333H11.5315M15.1351 5.83333H11.5315H15.1351ZM2.16211 5.83333H5.76571H2.16211ZM5.76571 5.83333V3C5.76571 2.86739 5.81127 2.74021 5.89237 2.64645C5.97347 2.55268 6.08346 2.5 6.19815 2.5H11.099C11.2137 2.5 11.3237 2.55268 11.4048 2.64645C11.4859 2.74021 11.5315 2.86739 11.5315 3V5.83333H5.76571Z" stroke="white" stroke-width="1.6" stroke-linecap="round" stroke-linejoin="round"/>
<path d="M13.6936 6V17C13.6936 17.1326 13.648 17.2598 13.5669 17.3536C13.4859 17.4473 11.7903 17.5 11.6756 17.5H6.05395C5.93926 17.5 3.81127 17.4473 3.73017 17.3536C3.64908 17.2598 3.60352 17.1326 3.60352 17V6" stroke="white" stroke-width="1.6" stroke-linecap="round" stroke-linejoin="round"/>
</svg>
