<?xml version="1.0" standalone="no"?>
<!DOCTYPE svg PUBLIC "-//W3C//DTD SVG 20010904//EN"
 "http://www.w3.org/TR/2001/REC-SVG-20010904/DTD/svg10.dtd">
<svg version="1.0" xmlns="http://www.w3.org/2000/svg"
 width="522.000000pt" height="493.000000pt" viewBox="0 0 522.000000 493.000000"
 preserveAspectRatio="xMidYMid meet">

<g transform="translate(0.000000,493.000000) scale(0.100000,-0.100000)"
fill="#000000" stroke="none">
<path d="M1385 4590 c-526 -94 -893 -514 -1007 -1150 -8 -47 -13 -153 -13
-285 1 -223 10 -296 61 -478 85 -302 252 -585 566 -954 128 -150 531 -553 673
-673 23 -19 87 -74 141 -121 179 -155 548 -444 693 -542 87 -60 91 -58 336
126 218 165 455 356 595 482 25 22 81 71 125 109 121 104 509 497 613 619 362
426 540 756 608 1132 23 125 26 469 6 585 -89 497 -335 868 -698 1049 -156 78
-288 110 -479 118 -250 10 -463 -52 -665 -195 -91 -64 -246 -224 -305 -315
-27 -42 -52 -77 -55 -77 -3 0 -30 37 -60 83 -65 96 -208 244 -300 309 -78 55
-202 118 -287 147 -155 52 -365 64 -548 31z m393 -146 c97 -20 209 -63 289
-111 137 -83 300 -255 384 -403 70 -125 84 -140 128 -140 43 0 67 21 101 90
100 198 292 395 474 484 131 65 218 87 366 93 305 13 550 -83 761 -297 172
-175 283 -397 341 -683 20 -96 23 -142 22 -317 0 -184 -3 -218 -27 -334 -59
-277 -186 -529 -417 -827 -318 -409 -861 -919 -1450 -1361 -63 -48 -127 -96
-142 -108 l-28 -22 -27 22 c-16 12 -89 67 -163 123 -588 442 -1154 978 -1452
1375 -296 396 -412 689 -425 1079 -9 254 33 485 125 692 160 358 431 584 775
646 102 19 273 18 365 -1z"/>
</g>
</svg>
