<svg width="111" height="116" viewBox="0 0 111 116" fill="none" xmlns="http://www.w3.org/2000/svg">
<path fill-rule="evenodd" clip-rule="evenodd" d="M55.3494 106.187C80.4988 106.187 100.886 85.7992 100.886 60.6498C100.886 35.5004 80.4988 15.1128 55.3494 15.1128C30.2 15.1128 9.81242 35.5004 9.81242 60.6498C9.81242 85.7992 30.2 106.187 55.3494 106.187Z" stroke="#3AD29F" stroke-width="0.305962" stroke-dasharray="1.84 1.84"/>
<path fill-rule="evenodd" clip-rule="evenodd" d="M55.3495 115.846C85.8336 115.846 110.546 91.134 110.546 60.6499C110.546 30.1658 85.8336 5.45357 55.3495 5.45357C24.8654 5.45357 0.153174 30.1658 0.153174 60.6499C0.153174 91.134 24.8654 115.846 55.3495 115.846Z" stroke="#3AD29F" stroke-width="0.305962" stroke-dasharray="1.84 1.84"/>
<path d="M92.2914 78.2346C92.2929 71.8084 87.4038 66.4366 81.0057 65.8349C74.6077 65.2332 68.8028 69.5994 67.6063 75.9133L29.3384 74.8753L29.7585 81.4498C29.7585 81.4498 24.3017 94.0407 52.9808 97.3954V110.121H86.1354V88.9626C89.9452 86.7318 92.2877 82.6495 92.2914 78.2346Z" fill="url(#paint0_linear_286_56365)"/>
<path d="M31.0724 81.726C31.0724 81.726 25.8472 93.7833 53.312 97.0001V109.192H85.0637V76.904L30.6646 75.429L31.0724 81.726Z" fill="#FFCBB4"/>
<path d="M46.9414 31.4097C45.2178 34.1294 41.6215 34.9466 38.8919 33.2388L21.8439 22.0048C19.1242 20.2813 18.307 16.685 20.0147 13.9554C21.738 11.2394 25.3298 10.4226 28.0581 12.1262L45.1061 23.3602C47.8279 25.0817 48.648 28.6785 46.9414 31.4097Z" fill="url(#paint1_linear_286_56365)"/>
<path d="M45.997 30.7964C44.3949 33.3244 41.052 34.0841 38.5148 32.4967L22.6627 22.0462C20.1347 20.4442 19.375 17.1013 20.9623 14.5641C22.5644 12.0361 25.9073 11.2764 28.4445 12.8637L44.2935 23.3081C46.8263 24.9094 47.5879 28.2571 45.997 30.7964Z" fill="#FFCBB4"/>
<path d="M79.0366 90.57C85.622 90.57 90.9605 85.2314 90.9605 78.646C90.9605 72.0606 85.622 66.7221 79.0366 66.7221C72.4511 66.7221 67.1126 72.0606 67.1126 78.646C67.1126 85.2314 72.4511 90.57 79.0366 90.57Z" fill="#FFCBB4"/>
<path d="M76.8898 0H31.2117C30.1744 0 29.3335 0.840903 29.3335 1.87821V87.3497C29.3335 88.3871 30.1744 89.228 31.2117 89.228H76.8898C77.9271 89.228 78.768 88.3871 78.768 87.3497V1.87821C78.768 0.840903 77.9271 0 76.8898 0Z" fill="url(#paint2_linear_286_56365)"/>
<path d="M76.0067 1.20679H32.0919C30.9368 1.20679 30.0005 2.14311 30.0005 3.29812V85.9332C30.0005 87.0882 30.9368 88.0245 32.0919 88.0245H76.0067C77.1617 88.0245 78.098 87.0882 78.098 85.9332V3.29812C78.098 2.14311 77.1617 1.20679 76.0067 1.20679Z" fill="white"/>
<path d="M66.1328 3.38353C65.8453 5.28597 64.213 6.69427 62.289 6.69991H45.678C43.7545 6.69351 42.1231 5.28539 41.8357 3.38353H33.0349C32.5504 3.38353 32.0855 3.57533 31.7427 3.91783C31.3999 4.26033 31.2073 4.72503 31.2073 5.2096V84.0177C31.2073 84.5023 31.3991 84.9671 31.7416 85.3099C32.0841 85.6527 32.5488 85.8453 33.0334 85.8453H75.0654C75.55 85.8453 76.0148 85.6535 76.3576 85.311C76.7004 84.9685 76.893 84.5038 76.893 84.0192V5.21114C76.893 4.72657 76.7012 4.2617 76.3587 3.91891C76.0162 3.57613 75.5515 3.38353 75.0669 3.38353H66.1328Z" fill="#E9ECFF"/>
<path d="M59.1704 4.42197H49.0648C48.8955 4.42197 48.7582 4.55926 48.7582 4.72862V4.78535C48.7582 4.95471 48.8955 5.092 49.0648 5.092H59.1704C59.3397 5.092 59.477 4.95471 59.477 4.78535V4.72862C59.477 4.55926 59.3397 4.42197 59.1704 4.42197Z" fill="#DBDBDB"/>
<path d="M61.7538 5.19002C62.0297 5.19002 62.2534 4.96638 62.2534 4.6905C62.2534 4.41463 62.0297 4.19099 61.7538 4.19099C61.478 4.19099 61.2543 4.41463 61.2543 4.6905C61.2543 4.96638 61.478 5.19002 61.7538 5.19002Z" fill="#DBDBDB"/>
<path d="M86.744 80.7497C83.2835 81.55 80.9085 79.2931 80.1082 75.8341L72.1568 46.3087C71.3657 42.8363 73.5267 39.3766 76.9942 38.5643C80.4666 37.7732 83.9262 39.9342 84.7385 43.4017L91.2272 73.6891C92.0275 77.1496 90.203 79.9493 86.744 80.7497Z" fill="url(#paint3_linear_286_56365)"/>
<path d="M83.8465 44.1243C83.1719 41.2045 80.258 39.3844 77.3382 40.059C74.4184 40.7337 72.5983 43.6476 73.2729 46.5674L80.5845 78.2121C81.2591 81.132 84.173 82.9521 87.0928 82.2774C90.0127 81.6028 91.8328 78.6889 91.1581 75.7691L83.8465 44.1243Z" fill="#FFCBB4"/>
<path d="M90.9095 105.202H45.5259V115.782H90.9095V105.202Z" fill="url(#paint4_linear_286_56365)"/>
<path d="M89.6832 106.429H46.7527V114.708H89.6832V106.429Z" fill="#4D8AF0"/>
<path d="M40.3238 63.0836C38.6213 65.7709 35.0679 66.5786 32.371 64.8912L20.9377 57.4934C18.2503 55.7908 17.4426 52.2375 19.13 49.5405C20.8326 46.8532 24.3859 46.0455 27.0829 47.7329L38.5162 55.1307C41.2035 56.8333 42.0112 60.3866 40.3238 63.0836Z" fill="url(#paint5_linear_286_56365)"/>
<path d="M37.4538 78.7419C35.7361 81.4539 32.1504 82.2691 29.4289 80.5664L22.3469 75.4025C19.6349 73.6847 18.8197 70.099 20.5224 67.3775C22.2401 64.6655 25.8258 63.8503 28.5473 65.553L35.6293 70.7185C38.3404 72.4361 39.1555 76.0207 37.4538 78.7419Z" fill="url(#paint6_linear_286_56365)"/>
<g opacity="0.5">
<path d="M54.0491 58.4054C61.6651 58.4054 67.839 52.2314 67.839 44.6155C67.839 36.9995 61.6651 30.8256 54.0491 30.8256C46.4332 30.8256 40.2592 36.9995 40.2592 44.6155C40.2592 52.2314 46.4332 58.4054 54.0491 58.4054Z" fill="url(#paint7_linear_286_56365)"/>
</g>
<path d="M54.0494 57.5946C61.2174 57.5946 67.0282 51.7838 67.0282 44.6158C67.0282 37.4478 61.2174 31.637 54.0494 31.637C46.8814 31.637 41.0706 37.4478 41.0706 44.6158C41.0706 51.7838 46.8814 57.5946 54.0494 57.5946Z" fill="#69F0AE"/>
<path d="M48.4161 42.8826L53.2826 47.3443L60.1776 37.2051L62.6123 39.2335L53.2826 51.4013L46.3877 43.6952L48.4161 42.8826Z" fill="white"/>
<path d="M36.8817 78.3578C35.2796 80.8857 31.9368 81.6454 29.3995 80.0581L22.7943 75.2499C20.2664 73.6478 19.5067 70.305 21.094 67.7677C22.696 65.2397 26.0389 64.4801 28.5762 66.0674L35.1798 70.8848C37.7027 72.4859 38.4625 75.822 36.8817 78.3578Z" fill="#FFCBB4"/>
<path d="M39.6952 62.6767C38.0932 65.2047 34.7503 65.9644 32.2131 64.377L21.4559 57.4162C18.9279 55.8141 18.1682 52.4713 19.7556 49.934C21.3576 47.406 24.7005 46.6463 27.2377 48.2336L37.9949 55.1945C40.5229 56.7966 41.2825 60.1394 39.6952 62.6767Z" fill="#FFCBB4"/>
<path d="M43.2797 47.498C41.5688 50.1971 37.9994 51.0081 35.29 49.3134L20.801 39.8794C18.1019 38.1684 17.2909 34.599 18.9857 31.8897C20.6966 29.1906 24.266 28.3796 26.9753 30.0744L41.4644 39.5083C44.1635 41.2193 44.9745 44.7887 43.2797 47.498Z" fill="url(#paint8_linear_286_56365)"/>
<path d="M42.5102 47.0078C40.9081 49.5358 37.5653 50.2955 35.028 48.7082L21.4574 39.8721C18.9294 38.2701 18.1697 34.9272 19.757 32.39C21.3591 29.862 24.7019 29.1023 27.2392 30.6896L40.8083 39.5256C43.3368 41.1272 44.0972 44.4701 42.5102 47.0078Z" fill="#FFCBB4"/>
<defs>
<linearGradient id="paint0_linear_286_56365" x1="60.8172" y1="110.129" x2="60.8172" y2="65.7817" gradientUnits="userSpaceOnUse">
<stop stop-color="#808080" stop-opacity="0.25"/>
<stop offset="0.54" stop-color="#808080" stop-opacity="0.12"/>
<stop offset="1" stop-color="#808080" stop-opacity="0.1"/>
</linearGradient>
<linearGradient id="paint1_linear_286_56365" x1="33.4765" y1="34.1327" x2="33.4765" y2="11.2354" gradientUnits="userSpaceOnUse">
<stop stop-color="#808080" stop-opacity="0.25"/>
<stop offset="0.54" stop-color="#808080" stop-opacity="0.12"/>
<stop offset="1" stop-color="#808080" stop-opacity="0.1"/>
</linearGradient>
<linearGradient id="paint2_linear_286_56365" x1="54.0507" y1="89.2264" x2="54.0507" y2="-0.0015317" gradientUnits="userSpaceOnUse">
<stop stop-color="#808080" stop-opacity="0.25"/>
<stop offset="0.54" stop-color="#808080" stop-opacity="0.12"/>
<stop offset="1" stop-color="#808080" stop-opacity="0.1"/>
</linearGradient>
<linearGradient id="paint3_linear_286_56365" x1="81.7027" y1="80.9091" x2="81.7027" y2="38.3987" gradientUnits="userSpaceOnUse">
<stop stop-color="#808080" stop-opacity="0.25"/>
<stop offset="0.54" stop-color="#808080" stop-opacity="0.12"/>
<stop offset="1" stop-color="#808080" stop-opacity="0.1"/>
</linearGradient>
<linearGradient id="paint4_linear_286_56365" x1="68.2208" y1="115.779" x2="68.2208" y2="105.199" gradientUnits="userSpaceOnUse">
<stop stop-color="#808080" stop-opacity="0.25"/>
<stop offset="0.54" stop-color="#808080" stop-opacity="0.12"/>
<stop offset="1" stop-color="#808080" stop-opacity="0.1"/>
</linearGradient>
<linearGradient id="paint5_linear_286_56365" x1="29.7246" y1="65.7729" x2="29.7246" y2="46.8528" gradientUnits="userSpaceOnUse">
<stop stop-color="#808080" stop-opacity="0.25"/>
<stop offset="0.54" stop-color="#808080" stop-opacity="0.12"/>
<stop offset="1" stop-color="#808080" stop-opacity="0.1"/>
</linearGradient>
<linearGradient id="paint6_linear_286_56365" x1="28.9889" y1="81.4557" x2="28.9889" y2="64.6622" gradientUnits="userSpaceOnUse">
<stop stop-color="#808080" stop-opacity="0.25"/>
<stop offset="0.54" stop-color="#808080" stop-opacity="0.12"/>
<stop offset="1" stop-color="#808080" stop-opacity="0.1"/>
</linearGradient>
<linearGradient id="paint7_linear_286_56365" x1="54.0491" y1="58.4054" x2="54.0491" y2="30.8241" gradientUnits="userSpaceOnUse">
<stop stop-color="#808080" stop-opacity="0.25"/>
<stop offset="0.54" stop-color="#808080" stop-opacity="0.12"/>
<stop offset="1" stop-color="#808080" stop-opacity="0.1"/>
</linearGradient>
<linearGradient id="paint8_linear_286_56365" x1="31.1319" y1="50.2042" x2="31.1319" y2="29.1943" gradientUnits="userSpaceOnUse">
<stop stop-color="#808080" stop-opacity="0.25"/>
<stop offset="0.54" stop-color="#808080" stop-opacity="0.12"/>
<stop offset="1" stop-color="#808080" stop-opacity="0.1"/>
</linearGradient>
</defs>
</svg>
