<svg width="30" height="30" viewBox="0 0 30 30" fill="none" xmlns="http://www.w3.org/2000/svg">
<g clip-path="url(#clip0_0_29)">
<path d="M15 18.9997C17.2091 18.9997 19 17.2089 19 14.9997C19 12.7906 17.2091 10.9997 15 10.9997C12.7908 10.9997 11 12.7906 11 14.9997C11 17.2089 12.7908 18.9997 15 18.9997Z" fill="white"/>
<path d="M11.25 2.49967L8.96248 4.99967H4.99998C3.62498 4.99967 2.49998 6.12467 2.49998 7.49967V22.4997C2.49998 23.8747 3.62498 24.9997 4.99998 24.9997H25C26.375 24.9997 27.5 23.8747 27.5 22.4997V7.49967C27.5 6.12467 26.375 4.99967 25 4.99967H21.0375L18.75 2.49967H11.25ZM15 21.2497C11.55 21.2497 8.74998 18.4497 8.74998 14.9997C8.74998 11.5497 11.55 8.74967 15 8.74967C18.45 8.74967 21.25 11.5497 21.25 14.9997C21.25 18.4497 18.45 21.2497 15 21.2497Z" fill="white"/>
</g>
<defs>
<clipPath id="clip0_0_29">
<rect width="29.5" height="29.5" fill="white" transform="scale(1.01695)"/>
</clipPath>
</defs>
</svg>
