<svg width="10" height="10" viewBox="0 0 10 10" fill="none" xmlns="http://www.w3.org/2000/svg">
<path d="M9.93623 9.39193C9.20524 8.07675 8.07877 7.1337 6.76415 6.68665C7.41442 6.28378 7.91964 5.66991 8.20222 4.9393C8.4848 4.20869 8.52913 3.40175 8.32838 2.64239C8.12763 1.88303 7.69292 1.21324 7.09099 0.735884C6.48907 0.258529 5.75321 0 4.99644 0C4.23967 0 3.50382 0.258529 2.90189 0.735884C2.29997 1.21324 1.86525 1.88303 1.6645 2.64239C1.46376 3.40175 1.50808 4.20869 1.79066 4.9393C2.07324 5.66991 2.57846 6.28378 3.22873 6.68665C1.91411 7.1332 0.787638 8.07625 0.0566532 9.39193C0.0298467 9.43742 0.0120661 9.48804 0.00436056 9.54079C-0.00334499 9.59355 -0.000819428 9.64738 0.0117882 9.6991C0.0243959 9.75082 0.0468303 9.7994 0.0777677 9.84195C0.108705 9.8845 0.147519 9.92018 0.191919 9.94687C0.236319 9.97356 0.285406 9.99072 0.336284 9.99735C0.387162 10.004 0.4388 9.99993 0.488151 9.98545C0.537502 9.97098 0.583567 9.94636 0.623628 9.91305C0.663689 9.87975 0.696935 9.83843 0.721403 9.79153C1.62565 8.16517 3.22393 7.19414 4.99644 7.19414C6.76895 7.19414 8.36723 8.16517 9.27148 9.79153C9.29595 9.83843 9.32919 9.87975 9.36925 9.91305C9.40931 9.94636 9.45538 9.97098 9.50473 9.98545C9.55408 9.99993 9.60572 10.004 9.6566 9.99735C9.70747 9.99072 9.75656 9.97356 9.80096 9.94687C9.84536 9.92018 9.88418 9.8845 9.91511 9.84195C9.94605 9.7994 9.96848 9.75082 9.98109 9.6991C9.9937 9.64738 9.99623 9.59355 9.98852 9.54079C9.98082 9.48804 9.96303 9.43742 9.93623 9.39193ZM2.30864 3.59775C2.30864 3.04452 2.46628 2.50371 2.76162 2.04371C3.05696 1.58372 3.47673 1.22519 3.96787 1.01348C4.459 0.801767 4.99942 0.746374 5.5208 0.854304C6.04219 0.962234 6.5211 1.22864 6.897 1.61984C7.2729 2.01103 7.52888 2.50944 7.63259 3.05204C7.7363 3.59465 7.68307 4.15707 7.47964 4.66819C7.27621 5.17931 6.93171 5.61617 6.4897 5.92353C6.04769 6.23089 5.52804 6.39494 4.99644 6.39494C4.28383 6.39415 3.60062 6.09919 3.09672 5.57479C2.59283 5.05038 2.30941 4.33937 2.30864 3.59775Z" fill="#A4A4A4"/>
</svg>
