<svg width="17" height="14" viewBox="0 0 17 14" fill="none" xmlns="http://www.w3.org/2000/svg">
<path d="M3.62614 0.266817C3.55391 0.188295 3.46625 0.12438 3.36822 0.0787751C3.27019 0.0331707 3.16375 0.00678431 3.05508 0.00114544C2.9464 -0.00449344 2.83764 0.0107273 2.73511 0.0459255C2.63257 0.0811236 2.5383 0.135599 2.45776 0.206195C2.37721 0.27679 2.312 0.362102 2.26589 0.457185C2.21978 0.552268 2.1937 0.655231 2.18916 0.760106C2.18462 0.864982 2.2017 0.969685 2.23942 1.06815C2.27715 1.16661 2.33476 1.25687 2.40891 1.3337L3.50551 2.50039C1.1444 4.01676 0.11976 6.19282 0.0704129 6.29528C0.0239809 6.39681 0 6.50656 0 6.61753C0 6.72849 0.0239809 6.83824 0.0704129 6.93977C0.0957718 6.99397 0.69616 8.27899 2.02305 9.55805C3.7968 11.2668 6.03318 12.1697 8.50053 12.1697C9.69969 12.1761 10.8881 11.9514 11.9959 11.5087L13.3729 12.9696C13.5203 13.1223 13.7243 13.2129 13.9405 13.2216C14.1567 13.2303 14.3678 13.1565 14.528 13.0161C14.6881 12.8757 14.7845 12.6801 14.7961 12.4717C14.8077 12.2633 14.7337 12.0588 14.5901 11.9027L3.62614 0.266817ZM8.50053 10.5833C6.4725 10.5833 4.69875 9.87402 3.22931 8.47597C2.6513 7.92399 2.15394 7.29865 1.75095 6.61719C2.11215 6.00179 3.03877 4.64076 4.62953 3.68956L10.8041 10.2409C10.0594 10.4702 9.28219 10.5857 8.50053 10.5833ZM16.9306 6.93977C16.906 6.99331 16.3138 8.2618 15.0116 9.52831C14.937 9.60814 14.8464 9.67253 14.7453 9.71756C14.6441 9.7626 14.5345 9.78735 14.4232 9.7903C14.3118 9.79326 14.201 9.77436 14.0974 9.73476C13.9938 9.69516 13.8997 9.63568 13.8207 9.55993C13.7417 9.48417 13.6795 9.39373 13.6378 9.29408C13.5961 9.19443 13.5759 9.08766 13.5783 8.98023C13.5807 8.87281 13.6057 8.76698 13.6518 8.66916C13.6979 8.57134 13.7641 8.48358 13.8465 8.41119C14.3935 7.8748 14.8654 7.27168 15.2501 6.61719C14.8473 5.93559 14.35 5.31022 13.7717 4.75842C12.3016 3.36037 10.5286 2.6511 8.50053 2.6511C8.27093 2.6511 8.04133 2.66036 7.81515 2.67886C7.70616 2.69013 7.59593 2.68026 7.49095 2.64985C7.38597 2.61943 7.28835 2.56909 7.20383 2.50177C7.11931 2.43445 7.04959 2.35151 6.99878 2.25784C6.94797 2.16416 6.91709 2.06163 6.90795 1.95628C6.89882 1.85093 6.91161 1.74487 6.94558 1.64436C6.97954 1.54384 7.034 1.45089 7.10575 1.37096C7.1775 1.29103 7.26509 1.22575 7.36338 1.17893C7.46166 1.13212 7.56866 1.10473 7.67808 1.09837C7.94743 1.0759 8.22638 1.06466 8.50053 1.06466C10.9679 1.06466 13.2043 1.96827 14.9766 3.677C16.3028 4.95606 16.9032 6.24174 16.9286 6.29528C16.9753 6.39667 16.9997 6.50635 17 6.61732C17.0004 6.72828 16.9767 6.8381 16.9306 6.93977Z" fill="#A4A4A4"/>
</svg>
