<svg width="20" height="19" viewBox="0 0 20 19" fill="none" xmlns="http://www.w3.org/2000/svg">
<path d="M14.5 0C12.76 0 11.09 0.838692 10 2.16403C8.91 0.838692 7.24 0 5.5 0C2.42 0 0 2.50572 0 5.69482C0 9.60872 3.4 12.7978 8.55 17.6436L10 19L11.45 17.6332C16.6 12.7978 20 9.60872 20 5.69482C20 2.50572 17.58 0 14.5 0ZM10.1 16.1008L10 16.2044L9.9 16.1008C5.14 11.6381 2 8.68719 2 5.69482C2 3.62398 3.5 2.07084 5.5 2.07084C7.04 2.07084 8.54 3.09591 9.07 4.51444H10.94C11.46 3.09591 12.96 2.07084 14.5 2.07084C16.5 2.07084 18 3.62398 18 5.69482C18 8.68719 14.86 11.6381 10.1 16.1008Z" fill="white"/>
</svg>
