<svg width="20" height="20" viewBox="0 0 20 20" fill="none" xmlns="http://www.w3.org/2000/svg">
<path fill-rule="evenodd" clip-rule="evenodd" d="M9.99992 18.3337C9.99992 18.3337 16.6666 12.0153 16.6666 8.33366C16.6666 6.56555 15.9642 4.86986 14.714 3.61961C13.4637 2.36937 11.768 1.66699 9.99992 1.66699C8.23181 1.66699 6.53612 2.36937 5.28587 3.61961C4.03563 4.86986 3.33325 6.56555 3.33325 8.33366C3.33325 12.0153 9.99992 18.3337 9.99992 18.3337ZM8.85089 6.8512C9.15564 6.54645 9.56896 6.37524 9.99994 6.37524C10.4309 6.37524 10.8442 6.54645 11.149 6.8512C11.4537 7.15594 11.6249 7.56927 11.6249 8.00024C11.6249 8.43122 11.4537 8.84455 11.149 9.14929C10.8442 9.45404 10.4309 9.62524 9.99994 9.62524C9.56896 9.62524 9.15564 9.45404 8.85089 9.14929C8.54614 8.84455 8.37494 8.43122 8.37494 8.00024C8.37494 7.56927 8.54614 7.15594 8.85089 6.8512Z" fill="white"/>
</svg>
