<svg width="32" height="32" viewBox="0 0 32 32" fill="none" xmlns="http://www.w3.org/2000/svg">
<path d="M9.33327 24.0001C7.66964 24.0001 6.07415 23.368 4.89779 22.2427C3.72142 21.1175 3.06055 19.5914 3.06055 18.0001C3.06055 16.4088 3.72142 14.8827 4.89779 13.7575C6.07415 12.6322 7.66964 12.0001 9.33327 12.0001C9.72619 10.2497 10.8756 8.71141 12.5287 7.72372C13.3473 7.23466 14.2648 6.89549 15.229 6.72558C16.1931 6.55567 17.1851 6.55834 18.1481 6.73343C19.1111 6.90853 20.0264 7.25262 20.8417 7.74607C21.6569 8.23952 22.3562 8.87266 22.8996 9.60934C23.443 10.346 23.8199 11.1718 24.0087 12.0396C24.1975 12.9073 24.1945 13.8 23.9999 14.6668H25.3333C26.571 14.6668 27.7579 15.1584 28.6331 16.0336C29.5083 16.9088 29.9999 18.0958 29.9999 19.3334C29.9999 20.5711 29.5083 21.7581 28.6331 22.6333C27.7579 23.5084 26.571 24.0001 25.3333 24.0001H23.9999" stroke="#917AFD" stroke-width="2" stroke-linecap="round" stroke-linejoin="round"/>
<path d="M12 20L16 16L20 20" stroke="#917AFD" stroke-width="2" stroke-linecap="round" stroke-linejoin="round"/>
<path d="M16 16V28" stroke="#917AFD" stroke-width="2" stroke-linecap="round" stroke-linejoin="round"/>
</svg>
