<svg width="10" height="10" viewBox="0 0 10 10" fill="none" xmlns="http://www.w3.org/2000/svg">
<path d="M9.10026 1.2066L9.44025 0.856729C9.53043 0.762612 9.58109 0.634962 9.58109 0.50186C9.58109 0.368759 9.53043 0.241109 9.44025 0.146991C9.35008 0.0528744 9.22778 0 9.10026 0C8.97273 0 8.85043 0.0528744 8.76026 0.146991L8.08984 0.851731L6.73463 2.26621L3.71294 5.41505C3.21781 5.07409 2.61904 4.9371 2.03266 5.03063C1.44628 5.12416 0.914039 5.44154 0.539067 5.92128C0.164094 6.40102 -0.0269113 7.00896 0.00306052 7.6273C0.0330324 8.24564 0.281848 8.83035 0.701294 9.26814C1.12074 9.70593 1.68095 9.96563 2.27338 9.99691C2.86581 10.0282 3.44828 9.82884 3.90792 9.43747C4.36755 9.04609 4.67164 8.49057 4.76125 7.87855C4.85086 7.26653 4.71961 6.64157 4.39294 6.12478L7.06984 3.32582L8.08505 4.39042C8.1297 4.4367 8.18264 4.47334 8.24086 4.49826C8.29907 4.52317 8.36142 4.53588 8.42435 4.53565C8.48727 4.53542 8.54953 4.52225 8.60757 4.4969C8.66562 4.47156 8.71832 4.43453 8.76265 4.38792C8.80699 4.34132 8.84209 4.28606 8.86597 4.2253C8.88984 4.16454 8.90201 4.09946 8.90179 4.03379C8.90157 3.96811 8.88895 3.90313 8.86467 3.84254C8.84039 3.78196 8.80491 3.72696 8.76026 3.68069L7.74505 2.62108L8.42505 1.91634L8.76026 2.26621C8.80459 2.31281 8.85729 2.34984 8.91533 2.37519C8.97338 2.40053 9.03564 2.4137 9.09856 2.41393C9.16148 2.41416 9.22383 2.40146 9.28205 2.37654C9.34027 2.35162 9.39321 2.31498 9.43786 2.26871C9.48251 2.22243 9.51799 2.16743 9.54227 2.10685C9.56656 2.04626 9.57917 1.98128 9.5794 1.91561C9.57962 1.84993 9.56744 1.78486 9.54357 1.72409C9.5197 1.66333 9.48459 1.60807 9.44025 1.56147L9.10026 1.2066ZM2.39604 8.99872C2.11191 8.99872 1.83415 8.91078 1.5979 8.74602C1.36165 8.58126 1.17752 8.34708 1.06878 8.07309C0.960049 7.7991 0.931599 7.49761 0.987032 7.20675C1.04246 6.91588 1.17929 6.64871 1.3802 6.43901C1.58112 6.2293 1.8371 6.0865 2.11577 6.02864C2.39445 5.97078 2.68331 6.00048 2.94581 6.11397C3.20832 6.22746 3.43269 6.41964 3.59055 6.66623C3.7484 6.91281 3.83266 7.20271 3.83266 7.49928C3.83266 7.89695 3.6813 8.27834 3.41189 8.55954C3.14247 8.84074 2.77706 8.99872 2.39604 8.99872Z" fill="#A4A4A4"/>
</svg>
