<svg width="24" height="24" viewBox="0 0 24 24" fill="none" xmlns="http://www.w3.org/2000/svg">
<path d="M17.0282 0H6.9721C2.60404 0 0 2.60404 0 6.9721V17.0162C0 21.3963 2.60404 24.0003 6.9721 24.0003H17.0162C21.3843 24.0003 23.9883 21.3963 23.9883 17.0282V6.9721C24.0003 2.60404 21.3963 0 17.0282 0ZM11.4362 13.8362L6.9721 18.3003H9.60013C10.0921 18.3003 10.5001 18.7083 10.5001 19.2003C10.5001 19.6923 10.0921 20.1003 9.60013 20.1003H4.80007C4.68006 20.1003 4.56006 20.0763 4.45206 20.0283C4.23606 19.9323 4.05606 19.7643 3.96006 19.5363C3.92405 19.4283 3.90005 19.3203 3.90005 19.2003V14.4002C3.90005 13.9082 4.30806 13.5002 4.80007 13.5002C5.29207 13.5002 5.70008 13.9082 5.70008 14.4002V17.0282L10.1641 12.5642C10.5121 12.2162 11.0882 12.2162 11.4362 12.5642C11.7842 12.9122 11.7842 13.4882 11.4362 13.8362ZM20.1003 9.60013C20.1003 10.0921 19.6923 10.5001 19.2003 10.5001C18.7083 10.5001 18.3003 10.0921 18.3003 9.60013V6.9721L13.8362 11.4362C13.6562 11.6162 13.4282 11.7002 13.2002 11.7002C12.9722 11.7002 12.7442 11.6162 12.5642 11.4362C12.2162 11.0882 12.2162 10.5121 12.5642 10.1641L17.0282 5.70008H14.4002C13.9082 5.70008 13.5002 5.29207 13.5002 4.80007C13.5002 4.30806 13.9082 3.90005 14.4002 3.90005H19.2003C19.3203 3.90005 19.4283 3.92406 19.5483 3.97206C19.7643 4.06806 19.9443 4.23606 20.0403 4.46406C20.0763 4.57206 20.1003 4.68007 20.1003 4.80007V9.60013Z" fill="#917AFD"/>
</svg>
