<svg width="32" height="28" viewBox="0 0 32 28" fill="none" xmlns="http://www.w3.org/2000/svg">
<path d="M28.8 3.81818H24.0208L21.6512 0.283182C21.5929 0.196232 21.5139 0.124911 21.4212 0.0755212C21.3286 0.0261313 21.2251 0.000193528 21.12 0H10.88C10.7749 0.000193528 10.6714 0.0261313 10.5788 0.0755212C10.4861 0.124911 10.4071 0.196232 10.3488 0.283182L7.976 3.81818H3.2C2.35131 3.81818 1.53737 4.15341 0.937258 4.75011C0.337142 5.34682 0 6.15613 0 7V24.8182C0 25.6621 0.337142 26.4714 0.937258 27.0681C1.53737 27.6648 2.35131 28 3.2 28H28.8C29.6487 28 30.4626 27.6648 31.0627 27.0681C31.6629 26.4714 32 25.6621 32 24.8182V7C32 6.15613 31.6629 5.34682 31.0627 4.75011C30.4626 4.15341 29.6487 3.81818 28.8 3.81818ZM30.72 24.8182C30.72 25.3245 30.5177 25.8101 30.1576 26.1681C29.7976 26.5261 29.3092 26.7273 28.8 26.7273H3.2C2.69078 26.7273 2.20242 26.5261 1.84235 26.1681C1.48228 25.8101 1.28 25.3245 1.28 24.8182V7C1.28 6.49368 1.48228 6.00809 1.84235 5.65007C2.20242 5.29204 2.69078 5.09091 3.2 5.09091H8.32C8.42539 5.09098 8.52917 5.06516 8.62212 5.01576C8.71507 4.96636 8.79431 4.8949 8.8528 4.80773L11.2208 1.27273H20.776L23.1472 4.80773C23.2057 4.8949 23.2849 4.96636 23.3779 5.01576C23.4708 5.06516 23.5746 5.09098 23.68 5.09091H28.8C29.3092 5.09091 29.7976 5.29204 30.1576 5.65007C30.5177 6.00809 30.72 6.49368 30.72 7V24.8182ZM16 8.90909C14.7342 8.90909 13.4968 9.28231 12.4444 9.98156C11.3919 10.6808 10.5716 11.6747 10.0872 12.8375C9.60277 14.0003 9.47603 15.2798 9.72297 16.5142C9.96992 17.7486 10.5795 18.8825 11.4745 19.7725C12.3696 20.6625 13.5099 21.2685 14.7514 21.5141C15.9929 21.7596 17.2797 21.6336 18.4492 21.152C19.6186 20.6703 20.6182 19.8547 21.3214 18.8082C22.0246 17.7617 22.4 16.5313 22.4 15.2727C22.4 13.585 21.7257 11.9664 20.5255 10.773C19.3253 9.57954 17.6974 8.90909 16 8.90909ZM16 20.3636C14.9874 20.3636 13.9975 20.0651 13.1555 19.5057C12.3135 18.9463 11.6573 18.1512 11.2697 17.2209C10.8822 16.2907 10.7808 15.2671 10.9784 14.2795C11.1759 13.292 11.6636 12.3849 12.3796 11.6729C13.0957 10.9609 14.008 10.4761 15.0011 10.2796C15.9943 10.0832 17.0238 10.184 17.9593 10.5693C18.8949 10.9547 19.6945 11.6072 20.2571 12.4444C20.8197 13.2816 21.12 14.2658 21.12 15.2727C21.12 16.6229 20.5806 17.9178 19.6204 18.8725C18.6602 19.8273 17.3579 20.3636 16 20.3636Z" fill="#F8F8F8"/>
</svg>
