<svg width="58" height="45" viewBox="0 0 58 45" fill="none" xmlns="http://www.w3.org/2000/svg">
<path d="M22.9431 5.58968C21.2793 5.68445 19.9045 5.88491 18.6078 6.24778C15.6757 7.06734 13.142 8.77377 11.3145 11.17C9.48951 13.5619 8.5 16.4911 8.5 19.5002C8.5 22.5105 9.48904 25.4378 11.3146 27.8303C13.1425 30.2262 15.6767 31.9332 18.6082 32.7526C19.9018 33.1147 21.2739 33.3145 22.9431 33.4106C23.0829 33.4185 23.0829 33.4185 23.223 33.4258C24.4381 33.4874 25.4181 33.4998 27.6611 33.5C27.884 33.5001 27.884 33.5001 28.1068 33.5002C29.2077 33.5 29.2077 33.5 32.5118 33.4997C35.8189 33.4993 35.8189 33.4993 36.926 33.4992C37.1255 33.4992 37.1256 33.4992 37.3247 33.4993C38.8533 33.4999 39.5297 33.4961 40.3693 33.4766C40.9684 33.4627 41.524 33.4413 42.0568 33.4106C43.7269 33.3145 45.099 33.1147 46.3932 32.7525C49.3243 31.9332 51.8585 30.2262 53.6865 27.8303C55.5115 25.4383 56.5 22.5112 56.5 19.4992C56.5 16.4902 55.511 13.5612 53.6863 11.1698C51.859 8.77377 49.3253 7.06734 46.3928 6.24766C45.0964 5.88487 43.7215 5.68444 42.0569 5.58968C40.6456 5.51297 39.6174 5.49934 37.259 5.50008C37.0758 5.50013 37.0758 5.50013 36.892 5.50015H28.075C27.8946 5.50013 27.8946 5.50013 27.7146 5.50008C26.5961 5.49972 26.1005 5.5011 25.4841 5.50854C24.538 5.51997 23.7206 5.54499 22.9431 5.58968ZM22.857 4.09215C24.597 3.99215 26.335 4.00015 28.075 4.00015H36.892C38.666 4.00015 40.404 3.99215 42.143 4.09215C43.724 4.18215 45.264 4.37415 46.797 4.80315C50.024 5.70515 52.842 7.58915 54.879 10.2602C56.904 12.9142 58 16.1632 58 19.4992C58 22.8392 56.904 26.0862 54.879 28.7402C52.842 31.4102 50.024 33.2952 46.797 34.1972C45.264 34.6262 43.724 34.8172 42.143 34.9082C40.404 35.0082 38.666 34.9992 36.926 34.9992C36.914 34.9992 28.107 35.0002 28.107 35.0002C26.335 34.9992 24.597 35.0082 22.857 34.9082C21.277 34.8172 19.737 34.6262 18.204 34.1972C14.977 33.2952 12.159 31.4102 10.122 28.7402C8.097 26.0862 7 22.8392 7 19.5002C7 16.1632 8.097 12.9142 10.122 10.2602C12.159 7.58915 14.977 5.70515 18.204 4.80315C19.737 4.37415 21.277 4.18215 22.857 4.09215Z" fill="#CCCCD6"/>
<g filter="url(#filter0_ddd_350_18096)">
<circle cx="22.5" cy="19.5" r="14" fill="white"/>
<circle cx="22.5" cy="19.5" r="14.25" stroke="black" stroke-opacity="0.04" stroke-width="0.5"/>
</g>
<defs>
<filter id="filter0_ddd_350_18096" x="0" y="0" width="45" height="45" filterUnits="userSpaceOnUse" color-interpolation-filters="sRGB">
<feFlood flood-opacity="0" result="BackgroundImageFix"/>
<feColorMatrix in="SourceAlpha" type="matrix" values="0 0 0 0 0 0 0 0 0 0 0 0 0 0 0 0 0 0 127 0" result="hardAlpha"/>
<feOffset dy="3"/>
<feGaussianBlur stdDeviation="0.5"/>
<feColorMatrix type="matrix" values="0 0 0 0 0 0 0 0 0 0 0 0 0 0 0 0 0 0 0.05 0"/>
<feBlend mode="normal" in2="BackgroundImageFix" result="effect1_dropShadow_350_18096"/>
<feColorMatrix in="SourceAlpha" type="matrix" values="0 0 0 0 0 0 0 0 0 0 0 0 0 0 0 0 0 0 127 0" result="hardAlpha"/>
<feOffset dy="1"/>
<feGaussianBlur stdDeviation="0.5"/>
<feColorMatrix type="matrix" values="0 0 0 0 0 0 0 0 0 0 0 0 0 0 0 0 0 0 0.08 0"/>
<feBlend mode="normal" in2="effect1_dropShadow_350_18096" result="effect2_dropShadow_350_18096"/>
<feColorMatrix in="SourceAlpha" type="matrix" values="0 0 0 0 0 0 0 0 0 0 0 0 0 0 0 0 0 0 127 0" result="hardAlpha"/>
<feOffset dy="3"/>
<feGaussianBlur stdDeviation="4"/>
<feColorMatrix type="matrix" values="0 0 0 0 0 0 0 0 0 0 0 0 0 0 0 0 0 0 0.08 0"/>
<feBlend mode="normal" in2="effect2_dropShadow_350_18096" result="effect3_dropShadow_350_18096"/>
<feBlend mode="normal" in="SourceGraphic" in2="effect3_dropShadow_350_18096" result="shape"/>
</filter>
</defs>
</svg>
