<svg width="34" height="34" viewBox="0 0 34 34" fill="none" xmlns="http://www.w3.org/2000/svg">
<path d="M12.3356 31.7903C12.1182 31.6986 11.9375 31.537 11.8221 31.3311C11.7066 31.1253 11.663 30.8869 11.6981 30.6535L13.6319 18.0628H8.5C8.33731 18.0672 8.17578 18.0342 8.02788 17.9662C7.87999 17.8983 7.74968 17.7973 7.64701 17.671C7.54434 17.5447 7.47205 17.3965 7.43573 17.2379C7.3994 17.0792 7.40001 16.9143 7.4375 16.756L10.625 2.94347C10.6811 2.70576 10.8174 2.49463 11.0109 2.34562C11.2044 2.19661 11.4433 2.11882 11.6875 2.12535H22.3125C22.4712 2.12481 22.6281 2.15984 22.7715 2.22787C22.9149 2.2959 23.0412 2.3952 23.1412 2.51847C23.2427 2.64314 23.3145 2.78918 23.3513 2.94562C23.3881 3.10205 23.3889 3.26479 23.3537 3.4216L21.5156 11.6878H26.5625C26.7616 11.6874 26.9569 11.743 27.1259 11.8482C27.295 11.9534 27.4311 12.104 27.5187 12.2828C27.5949 12.4545 27.6242 12.6432 27.6037 12.8299C27.5831 13.0165 27.5135 13.1944 27.4019 13.3453L13.5894 31.4078C13.496 31.5462 13.3714 31.6607 13.2255 31.7419C13.0797 31.8231 12.9168 31.8688 12.75 31.8753C12.6078 31.8727 12.4674 31.8439 12.3356 31.7903ZM18.8594 13.8128L20.9844 4.25035H12.5375L9.83875 15.9378H16.1181L14.4287 26.8603L24.4375 13.8128H18.8594Z" fill="black"/>
</svg>
